<?xml version="1.0" encoding="UTF-8" standalone="no"?>
<!-- Generator: Adobe Illustrator 19.0.0, SVG Export Plug-In . SVG Version: 6.00 Build 0)  -->

<svg
   xmlns:dc="http://purl.org/dc/elements/1.1/"
   xmlns:cc="http://creativecommons.org/ns#"
   xmlns:rdf="http://www.w3.org/1999/02/22-rdf-syntax-ns#"
   xmlns:svg="http://www.w3.org/2000/svg"
   xmlns="http://www.w3.org/2000/svg"
   xmlns:sodipodi="http://sodipodi.sourceforge.net/DTD/sodipodi-0.dtd"
   xmlns:inkscape="http://www.inkscape.org/namespaces/inkscape"
   version="1.1"
   id="Capa_1"
   x="0px"
   y="0px"
   viewBox="0 0 56 56"
   style="enable-background:new 0 0 56 56;"
   xml:space="preserve"
   width="512px"
   height="512px"
   inkscape:version="0.91 r13725"
   sodipodi:docname="cloud.svg"><metadata
   id="metadata3373"><rdf:RDF><cc:Work
       rdf:about=""><dc:format>image/svg+xml</dc:format><dc:type
         rdf:resource="http://purl.org/dc/dcmitype/StillImage" /></cc:Work></rdf:RDF></metadata><defs
   id="defs3371" /><sodipodi:namedview
   pagecolor="#ffffff"
   bordercolor="#666666"
   borderopacity="1"
   objecttolerance="10"
   gridtolerance="10"
   guidetolerance="10"
   inkscape:pageopacity="0"
   inkscape:pageshadow="2"
   inkscape:window-width="2560"
   inkscape:window-height="1361"
   id="namedview3369"
   showgrid="false"
   inkscape:zoom="2.2753906"
   inkscape:cx="256"
   inkscape:cy="256"
   inkscape:window-x="2551"
   inkscape:window-y="-9"
   inkscape:window-maximized="1"
   inkscape:current-layer="Capa_1" />
<path
   d="m 25.95464,41.01757 -10.546386,0 c -4.455485,0 -8.0802227,-3.624738 -8.0802227,-8.080968 0,-3.094998 2.015399,-6.307715 4.7929987,-7.639145 l 0.422451,-0.201913 0,-0.46939 c 0,-0.09462 0.006,-0.190737 0.01118,-0.287595 l 0.0067,-0.11921 -0.0089,-0.156464 c -0.0045,-0.06035 -0.0089,-0.1207 -0.0089,-0.181796 0,-2.875203 2.340248,-5.21545 5.215451,-5.21545 0.230225,0 0.45747,0.02012 0.683224,0.04992 0.05812,0.0075 0.11623,0.01714 0.1736,0.02682 0.198932,0.03278 0.394884,0.076 0.587856,0.131877 0.02608,0.0074 0.0529,0.01267 0.07898,0.02012 0.212343,0.06482 0.419471,0.146778 0.622129,0.239166 0.0529,0.02384 0.104309,0.04992 0.156463,0.07525 0.178816,0.08866 0.353906,0.185521 0.523035,0.295045 1.435739,0.92984 2.390167,2.542905 2.390167,4.377253 0,0.412021 0.333044,0.745065 0.745064,0.745065 0.412021,0 0.745065,-0.333044 0.745065,-0.745065 0,-2.051907 -0.928351,-3.888491 -2.384206,-5.119337 2.136099,-2.793991 5.653548,-4.5665 9.153115,-4.5665 5.770524,0 10.562778,4.57097 11.062716,10.347454 -0.761456,-0.05364 -1.901404,-0.08121 -3.042098,0.09239 -0.406805,0.06184 -0.686204,0.441824 -0.624364,0.848629 0.05588,0.368807 0.373278,0.633305 0.735379,0.633305 0.03725,0 0.07525,-0.003 0.112505,-0.0089 1.659258,-0.251087 3.388553,-0.01565 3.489881,-0.0015 3.468937,0.659348 6.084113,3.854929 6.084113,7.439433 0,4.119461 -3.352045,7.471506 -7.471506,7.471506 l -9.664975,0 -5.960515,0 z"
   id="path3337"
   inkscape:connector-curvature="0"
   style="fill:#ffffff" />
<g
   id="g3339">
</g>
<g
   id="g3341">
</g>
<g
   id="g3343">
</g>
<g
   id="g3345">
</g>
<g
   id="g3347">
</g>
<g
   id="g3349">
</g>
<g
   id="g3351">
</g>
<g
   id="g3353">
</g>
<g
   id="g3355">
</g>
<g
   id="g3357">
</g>
<g
   id="g3359">
</g>
<g
   id="g3361">
</g>
<g
   id="g3363">
</g>
<g
   id="g3365">
</g>
<g
   id="g3367">
</g>
</svg>