<?xml version="1.0" encoding="UTF-8" standalone="no"?>
<!-- Generated by IcoMoon.io -->

<svg
   xmlns:dc="http://purl.org/dc/elements/1.1/"
   xmlns:cc="http://creativecommons.org/ns#"
   xmlns:rdf="http://www.w3.org/1999/02/22-rdf-syntax-ns#"
   xmlns:svg="http://www.w3.org/2000/svg"
   xmlns="http://www.w3.org/2000/svg"
   xmlns:sodipodi="http://sodipodi.sourceforge.net/DTD/sodipodi-0.dtd"
   xmlns:inkscape="http://www.inkscape.org/namespaces/inkscape"
   version="1.1"
   width="512px"
   height="512px"
   viewBox="0 0 16 16"
   id="svg3336"
   inkscape:version="0.91 r13725"
   sodipodi:docname="qr-code.svg">
  <metadata
     id="metadata3394">
    <rdf:RDF>
      <cc:Work
         rdf:about="">
        <dc:format>image/svg+xml</dc:format>
        <dc:type
           rdf:resource="http://purl.org/dc/dcmitype/StillImage" />
      </cc:Work>
    </rdf:RDF>
  </metadata>
  <defs
     id="defs3392" />
  <sodipodi:namedview
     pagecolor="#ffffff"
     bordercolor="#666666"
     borderopacity="1"
     objecttolerance="10"
     gridtolerance="10"
     guidetolerance="10"
     inkscape:pageopacity="0"
     inkscape:pageshadow="2"
     inkscape:window-width="1005"
     inkscape:window-height="817"
     id="namedview3390"
     showgrid="false"
     inkscape:zoom="1.2629695"
     inkscape:cx="256"
     inkscape:cy="257.31582"
     inkscape:window-x="205"
     inkscape:window-y="95"
     inkscape:window-maximized="0"
     inkscape:current-layer="svg3336" />
  <g
     id="g3396"
     transform="matrix(0.76957826,0,0,0.76957826,1.8557456,1.7567725)">
    <path
       id="path3338"
       d="M 6,0 0,0 0,6 6,6 6,0 Z M 5,5 1,5 1,1 5,1 5,5 Z"
       inkscape:connector-curvature="0"
       style="fill:#ffffff" />
    <path
       id="path3340"
       d="M 2,2 4,2 4,4 2,4 2,2 Z"
       inkscape:connector-curvature="0"
       style="fill:#ffffff" />
    <path
       id="path3342"
       d="m 0,16 6,0 0,-6 -6,0 0,6 z m 1,-5 4,0 0,4 -4,0 0,-4 z"
       inkscape:connector-curvature="0"
       style="fill:#ffffff" />
    <path
       id="path3344"
       d="m 2,12 2,0 0,2 -2,0 0,-2 z"
       inkscape:connector-curvature="0"
       style="fill:#ffffff" />
    <path
       id="path3346"
       d="m 10,0 0,6 6,0 0,-6 -6,0 z m 5,5 -4,0 0,-4 4,0 0,4 z"
       inkscape:connector-curvature="0"
       style="fill:#ffffff" />
    <path
       id="path3348"
       d="m 12,2 2,0 0,2 -2,0 0,-2 z"
       inkscape:connector-curvature="0"
       style="fill:#ffffff" />
    <path
       id="path3350"
       d="M 2,7 0,7 0,9 3,9 3,8 2,8 Z"
       inkscape:connector-curvature="0"
       style="fill:#ffffff" />
    <path
       id="path3352"
       d="M 7,9 9,9 9,11 7,11 7,9 Z"
       inkscape:connector-curvature="0"
       style="fill:#ffffff" />
    <path
       id="path3354"
       d="M 3,7 5,7 5,8 3,8 3,7 Z"
       inkscape:connector-curvature="0"
       style="fill:#ffffff" />
    <path
       id="path3356"
       d="m 9,12 -2,0 0,1 1,0 0,1 1,0 0,-1 z"
       inkscape:connector-curvature="0"
       style="fill:#ffffff" />
    <path
       id="path3358"
       d="M 6,7 6,8 5,8 5,9 7,9 7,7 Z"
       inkscape:connector-curvature="0"
       style="fill:#ffffff" />
    <path
       id="path3360"
       d="M 8,4 9,4 9,6 8,6 8,4 Z"
       inkscape:connector-curvature="0"
       style="fill:#ffffff" />
    <path
       id="path3362"
       d="M 9,8 9,9 11,9 11,7 8,7 8,8 Z"
       inkscape:connector-curvature="0"
       style="fill:#ffffff" />
    <path
       id="path3364"
       d="M 7,6 8,6 8,7 7,7 7,6 Z"
       inkscape:connector-curvature="0"
       style="fill:#ffffff" />
    <path
       id="path3366"
       d="m 9,14 2,0 0,2 -2,0 0,-2 z"
       inkscape:connector-curvature="0"
       style="fill:#ffffff" />
    <path
       id="path3368"
       d="m 7,14 1,0 0,2 -1,0 0,-2 z"
       inkscape:connector-curvature="0"
       style="fill:#ffffff" />
    <path
       id="path3370"
       d="m 9,11 1,0 0,1 -1,0 0,-1 z"
       inkscape:connector-curvature="0"
       style="fill:#ffffff" />
    <path
       id="path3372"
       d="M 9,3 9,1 8,1 8,0 7,0 7,4 8,4 8,3 Z"
       inkscape:connector-curvature="0"
       style="fill:#ffffff" />
    <path
       id="path3374"
       d="m 12,14 1,0 0,2 -1,0 0,-2 z"
       inkscape:connector-curvature="0"
       style="fill:#ffffff" />
    <path
       id="path3376"
       d="m 12,12 2,0 0,1 -2,0 0,-1 z"
       inkscape:connector-curvature="0"
       style="fill:#ffffff" />
    <path
       id="path3378"
       d="m 11,13 1,0 0,1 -1,0 0,-1 z"
       inkscape:connector-curvature="0"
       style="fill:#ffffff" />
    <path
       id="path3380"
       d="m 10,12 1,0 0,1 -1,0 0,-1 z"
       inkscape:connector-curvature="0"
       style="fill:#ffffff" />
    <path
       id="path3382"
       d="m 14,10 0,1 1,0 0,1 1,0 0,-2 -1,0 z"
       inkscape:connector-curvature="0"
       style="fill:#ffffff" />
    <path
       id="path3384"
       d="m 15,13 -1,0 0,3 2,0 0,-2 -1,0 z"
       inkscape:connector-curvature="0"
       style="fill:#ffffff" />
    <path
       id="path3386"
       d="m 10,10 0,1 3,0 0,-2 -2,0 0,1 z"
       inkscape:connector-curvature="0"
       style="fill:#ffffff" />
    <path
       id="path3388"
       d="m 12,7 0,1 2,0 0,1 2,0 0,-2 -2,0 z"
       inkscape:connector-curvature="0"
       style="fill:#ffffff" />
  </g>
</svg>
