<?xml version="1.0" encoding="iso-8859-1"?>
<!-- Generator: Adobe Illustrator 18.1.1, SVG Export Plug-In . SVG Version: 6.00 Build 0)  -->
<svg xmlns="http://www.w3.org/2000/svg" xmlns:xlink="http://www.w3.org/1999/xlink" version="1.1" id="Capa_1" x="0px" y="0px" viewBox="0 0 25.213 25.213" style="enable-background:new 0 0 25.213 25.213;" xml:space="preserve" width="512px" height="512px">
<g>
	<path d="M12.633,25.213c-0.041,0-0.084-0.018-0.113-0.051l-4.65-4.629c-0.045-0.047-0.061-0.117-0.035-0.178   c0.023-0.062,0.088-0.104,0.152-0.104h2.949v-8.797L4.242,4.766L2.197,6.809C2.15,6.857,2.078,6.873,2.016,6.848   C1.957,6.82,1.918,6.758,1.918,6.695l0.006-6.518c0-0.09,0.074-0.164,0.162-0.164L8.609,0l0,0c0.066,0,0.125,0.041,0.15,0.1   c0.025,0.066,0.012,0.135-0.033,0.184l-2.074,2.07l5.936,5.938l5.941-5.941l-2.045-2.049c-0.047-0.049-0.061-0.115-0.035-0.178   c0.027-0.062,0.086-0.1,0.152-0.1l0,0l6.514,0.006c0.09,0,0.162,0.07,0.162,0.162l0.018,6.52c0,0.066-0.043,0.129-0.104,0.152   c-0.061,0.025-0.133,0.012-0.18-0.035l-2.072-2.072l-6.576,6.58v8.916h2.91c0.064,0,0.123,0.041,0.15,0.104   c0.027,0.061,0.012,0.131-0.037,0.178l-4.635,4.629C12.717,25.195,12.678,25.213,12.633,25.213z" fill="#FFFFFF"/>
	<g>
	</g>
	<g>
	</g>
	<g>
	</g>
	<g>
	</g>
	<g>
	</g>
	<g>
	</g>
	<g>
	</g>
	<g>
	</g>
	<g>
	</g>
	<g>
	</g>
	<g>
	</g>
	<g>
	</g>
	<g>
	</g>
	<g>
	</g>
	<g>
	</g>
</g>
<g>
</g>
<g>
</g>
<g>
</g>
<g>
</g>
<g>
</g>
<g>
</g>
<g>
</g>
<g>
</g>
<g>
</g>
<g>
</g>
<g>
</g>
<g>
</g>
<g>
</g>
<g>
</g>
<g>
</g>
</svg>
