<?xml version="1.0"?>
<svg xmlns="http://www.w3.org/2000/svg" height="512px" viewBox="-57 1 511 511.99998" width="512px"><path d="m198.546875 279.140625c-17.664063 0-32.03125 14.367187-32.03125 32.03125 0 11.386719 6.144531 22.015625 16.03125 27.734375 4.695313 2.726562 7.59375 7.738281 7.59375 13.171875v70.273437c0 4.632813 3.773437 8.40625 8.40625 8.40625 4.636719 0 8.40625-3.773437 8.40625-8.40625v-70.273437c0-5.433594 2.902344-10.445313 7.597656-13.171875 9.886719-5.71875 16.03125-16.347656 16.03125-27.734375 0-17.664063-14.367187-32.03125-32.035156-32.03125zm0 0" fill="#FFFFFF"/><path d="m350.964844 179.554688c-45.425782 0-273.488282 0-304.832032 0-25.167968 0-45.632812 20.472656-45.632812 45.628906v241.183594c0 25.160156 20.464844 45.632812 45.632812 45.632812h304.832032c25.167968 0 45.632812-20.472656 45.632812-45.632812v-241.183594c0-25.15625-20.464844-45.628906-45.632812-45.628906zm-113.589844 180.503906v62.292968c0 21.40625-17.410156 38.824219-38.828125 38.824219-21.414063 0-38.824219-17.417969-38.824219-38.824219v-62.292968c-14.753906-11.742188-23.628906-29.761719-23.628906-48.886719 0-34.433594 28.019531-62.453125 62.453125-62.453125 34.4375 0 62.457031 28.019531 62.457031 62.453125 0 19.125-8.875 37.144531-23.628906 48.886719zm0 0" fill="#FFFFFF"/><path d="m156.972656 88.179688c0-2.515626 2.050782-4.5625 4.5625-4.5625h74.023438c2.515625 0 4.566406 2.046874 4.566406 4.5625v60.953124h86.960938v-72.460937c0-42.277344-34.394532-76.671875-76.671876-76.671875h-103.734374c-42.273438 0-76.667969 34.394531-76.667969 76.671875v72.460937h86.960937zm0 0" fill="#FFFFFF"/></svg>
