<?xml version="1.0" encoding="UTF-8" standalone="no"?>
<!-- Generator: Adobe Illustrator 16.0.0, SVG Export Plug-In . SVG Version: 6.00 Build 0)  -->

<svg
   xmlns:dc="http://purl.org/dc/elements/1.1/"
   xmlns:cc="http://creativecommons.org/ns#"
   xmlns:rdf="http://www.w3.org/1999/02/22-rdf-syntax-ns#"
   xmlns:svg="http://www.w3.org/2000/svg"
   xmlns="http://www.w3.org/2000/svg"
   xmlns:sodipodi="http://sodipodi.sourceforge.net/DTD/sodipodi-0.dtd"
   xmlns:inkscape="http://www.inkscape.org/namespaces/inkscape"
   version="1.1"
   id="Capa_1"
   x="0px"
   y="0px"
   width="512px"
   height="512px"
   viewBox="0 0 31.939 31.939"
   style="enable-background:new 0 0 31.939 31.939;"
   xml:space="preserve"
   inkscape:version="0.91 r13725"
   sodipodi:docname="card.svg"><metadata
   id="metadata3447"><rdf:RDF><cc:Work
       rdf:about=""><dc:format>image/svg+xml</dc:format><dc:type
         rdf:resource="http://purl.org/dc/dcmitype/StillImage" /></cc:Work></rdf:RDF></metadata><defs
   id="defs3445" /><sodipodi:namedview
   pagecolor="#ffffff"
   bordercolor="#666666"
   borderopacity="1"
   objecttolerance="10"
   gridtolerance="10"
   guidetolerance="10"
   inkscape:pageopacity="0"
   inkscape:pageshadow="2"
   inkscape:window-width="1039"
   inkscape:window-height="847"
   id="namedview3443"
   showgrid="false"
   inkscape:zoom="1.2459717"
   inkscape:cx="256"
   inkscape:cy="256"
   inkscape:window-x="512"
   inkscape:window-y="178"
   inkscape:window-maximized="0"
   inkscape:current-layer="Capa_1" />
<g
   id="g3399"
   transform="matrix(0.79151563,0,0,0.79151563,3.3043581,3.4911005)">
	<g
   id="g3401">
		<path
   d="m 15.58,18.332 -0.777,0 c -0.403,0 -0.73,-0.326 -0.73,-0.729 0,-0.149 0.06,-0.293 0.167,-0.397 0.452,-0.439 0.832,-1.03 1.107,-1.667 0.056,0.041 0.116,0.071 0.184,0.071 0.436,0 0.95,-0.964 0.95,-1.621 0,-0.657 -0.061,-1.19 -0.498,-1.19 -0.052,0 -0.106,0.009 -0.162,0.023 C 15.79,11.04 15.34,8.817 12.619,8.817 c -2.839,0 -3.17,2.219 -3.202,3.999 -0.04,-0.008 -0.08,-0.017 -0.117,-0.017 -0.437,0 -0.497,0.533 -0.497,1.19 0,0.657 0.512,1.621 0.949,1.621 0.054,0 0.104,-0.015 0.151,-0.042 0.274,0.627 0.649,1.206 1.094,1.641 0.107,0.104 0.167,0.246 0.167,0.396 0,0.403 -0.327,0.73 -0.73,0.73 l -0.778,0 c -1.662,0 -3.009,1.347 -3.009,3.009 l 0,0.834 c 0,0.524 0.425,0.95 0.95,0.95 l 10.042,0 c 0.524,0 0.949,-0.426 0.949,-0.95 l 0,-0.834 C 18.589,19.68 17.242,18.332 15.58,18.332 Z"
   id="path3403"
   inkscape:connector-curvature="0"
   style="fill:#ffffff" />
		<path
   d="m 24.589,10.077 -8.421,0 c 0.243,0.538 0.417,1.2 0.489,2.019 0.18,0.111 0.315,0.29 0.425,0.506 l 7.507,0 c 0.39,0 0.704,-0.315 0.704,-0.704 l 0,-1.117 c 0,-0.388 -0.314,-0.704 -0.704,-0.704 z"
   id="path3405"
   inkscape:connector-curvature="0"
   style="fill:#ffffff" />
		<path
   d="m 24.589,14.678 -7.335,0 c -0.199,0.752 -0.689,1.539 -1.368,1.749 -0.02,0.037 -0.043,0.069 -0.064,0.106 l 0,0.67 8.766,0 c 0.389,0 0.704,-0.315 0.704,-0.705 l 0,-1.116 c 10e-4,-0.389 -0.313,-0.704 -0.703,-0.704 z"
   id="path3407"
   inkscape:connector-curvature="0"
   style="fill:#ffffff" />
		<path
   d="m 24.589,19.279 -5.726,0 c 0.378,0.598 0.6,1.303 0.6,2.062 l 0,0.463 5.126,0 c 0.39,0 0.704,-0.315 0.704,-0.704 l 0,-1.117 c 0,-0.389 -0.314,-0.704 -0.704,-0.704 z"
   id="path3409"
   inkscape:connector-curvature="0"
   style="fill:#ffffff" />
		<path
   d="m 27.615,3.057 -23.29,0 C 1.936,3.057 0,4.993 0,7.382 l 0,17.176 c 0,2.39 1.936,4.325 4.325,4.325 l 23.29,0 c 2.389,0 4.324,-1.936 4.324,-4.325 l 0,-17.176 c 0,-2.389 -1.935,-4.325 -4.324,-4.325 z m 2.283,21.501 c 0,1.259 -1.024,2.283 -2.283,2.283 l -23.29,0 c -1.259,0 -2.283,-1.024 -2.283,-2.283 l 0,-17.176 c 0,-1.259 1.024,-2.283 2.283,-2.283 l 23.29,0 c 1.259,0 2.283,1.024 2.283,2.283 l 0,17.176 z"
   id="path3411"
   inkscape:connector-curvature="0"
   style="fill:#ffffff" />
	</g>
</g>
<g
   id="g3413">
</g>
<g
   id="g3415">
</g>
<g
   id="g3417">
</g>
<g
   id="g3419">
</g>
<g
   id="g3421">
</g>
<g
   id="g3423">
</g>
<g
   id="g3425">
</g>
<g
   id="g3427">
</g>
<g
   id="g3429">
</g>
<g
   id="g3431">
</g>
<g
   id="g3433">
</g>
<g
   id="g3435">
</g>
<g
   id="g3437">
</g>
<g
   id="g3439">
</g>
<g
   id="g3441">
</g>
</svg>