<?xml version="1.0" encoding="UTF-8" standalone="no"?>
<!-- Generator: Adobe Illustrator 16.0.0, SVG Export Plug-In . SVG Version: 6.00 Build 0)  -->

<svg
   xmlns:dc="http://purl.org/dc/elements/1.1/"
   xmlns:cc="http://creativecommons.org/ns#"
   xmlns:rdf="http://www.w3.org/1999/02/22-rdf-syntax-ns#"
   xmlns:svg="http://www.w3.org/2000/svg"
   xmlns="http://www.w3.org/2000/svg"
   xmlns:sodipodi="http://sodipodi.sourceforge.net/DTD/sodipodi-0.dtd"
   xmlns:inkscape="http://www.inkscape.org/namespaces/inkscape"
   version="1.1"
   id="Capa_1"
   x="0px"
   y="0px"
   width="512px"
   height="512px"
   viewBox="0 0 960.301 960.301"
   style="enable-background:new 0 0 960.301 960.301;"
   xml:space="preserve"
   inkscape:version="0.91 r13725"
   sodipodi:docname="text.svg"><metadata
   id="metadata3473"><rdf:RDF><cc:Work
       rdf:about=""><dc:format>image/svg+xml</dc:format><dc:type
         rdf:resource="http://purl.org/dc/dcmitype/StillImage" /><dc:title /></cc:Work></rdf:RDF></metadata><defs
   id="defs3471" /><sodipodi:namedview
   pagecolor="#ffffff"
   bordercolor="#666666"
   borderopacity="1"
   objecttolerance="10"
   gridtolerance="10"
   guidetolerance="10"
   inkscape:pageopacity="0"
   inkscape:pageshadow="2"
   inkscape:window-width="1177"
   inkscape:window-height="746"
   id="namedview3469"
   showgrid="false"
   inkscape:zoom="1.0641174"
   inkscape:cx="256"
   inkscape:cy="256"
   inkscape:window-x="287"
   inkscape:window-y="84"
   inkscape:window-maximized="0"
   inkscape:current-layer="Capa_1" />
<g
   id="g3435"
   transform="matrix(0.73464203,0,0,0.73464203,126.40287,114.13227)">
	<path
   d="m 45.6,887.882 156,-95.101 c 9.4,-5.7 20.2,-8.8 31.2,-8.8 l 667.5,0 c 33.1,0 60,-26.9 60,-60 l 0,-596 c 0,-33.1 -26.9,-60 -60,-60 l -840.3,0 c -33.1,0 -60,26.9 -60,60 l 0,734.3 c 0,23.401 25.6,37.8 45.6,25.601 z m 117.8,-643.3 633.401,0 c 16.6,0 30,13.4 30,30 0,16.6 -13.4,30 -30,30 l -633.401,0 c -16.6,0 -30,-13.4 -30,-30 0,-16.6 13.5,-30 30,-30 z m 0,143.299 633.401,0 c 16.6,0 30,13.4 30,30 0,16.6 -13.4,30 -30,30 l -633.401,0 c -16.6,0 -30,-13.4 -30,-30 0,-16.6 13.5,-30 30,-30 z m 0,143.301 316.7,0 c 16.599,0 30,13.399 30,30 0,16.6 -13.4,30 -30,30 l -316.7,0 c -16.6,0 -30,-13.4 -30,-30 0,-16.601 13.5,-30 30,-30 z"
   id="path3437"
   inkscape:connector-curvature="0"
   style="fill:#ffffff" />
</g>
<g
   id="g3439">
</g>
<g
   id="g3441">
</g>
<g
   id="g3443">
</g>
<g
   id="g3445">
</g>
<g
   id="g3447">
</g>
<g
   id="g3449">
</g>
<g
   id="g3451">
</g>
<g
   id="g3453">
</g>
<g
   id="g3455">
</g>
<g
   id="g3457">
</g>
<g
   id="g3459">
</g>
<g
   id="g3461">
</g>
<g
   id="g3463">
</g>
<g
   id="g3465">
</g>
<g
   id="g3467">
</g>
</svg>