<?xml version="1.0" encoding="UTF-8" standalone="no"?>
<!-- Generator: Adobe Illustrator 19.0.0, SVG Export Plug-In . SVG Version: 6.00 Build 0)  -->

<svg
   xmlns:dc="http://purl.org/dc/elements/1.1/"
   xmlns:cc="http://creativecommons.org/ns#"
   xmlns:rdf="http://www.w3.org/1999/02/22-rdf-syntax-ns#"
   xmlns:svg="http://www.w3.org/2000/svg"
   xmlns="http://www.w3.org/2000/svg"
   xmlns:sodipodi="http://sodipodi.sourceforge.net/DTD/sodipodi-0.dtd"
   xmlns:inkscape="http://www.inkscape.org/namespaces/inkscape"
   version="1.1"
   id="Layer_1"
   x="0px"
   y="0px"
   viewBox="0 0 512 512"
   style="enable-background:new 0 0 512 512;"
   xml:space="preserve"
   width="512px"
   height="512px"
   inkscape:version="0.91 r13725"
   sodipodi:docname="wechat.svg"><metadata
   id="metadata3401"><rdf:RDF><cc:Work
       rdf:about=""><dc:format>image/svg+xml</dc:format><dc:type
         rdf:resource="http://purl.org/dc/dcmitype/StillImage" /></cc:Work></rdf:RDF></metadata><defs
   id="defs3399" /><sodipodi:namedview
   pagecolor="#ffffff"
   bordercolor="#666666"
   borderopacity="1"
   objecttolerance="10"
   gridtolerance="10"
   guidetolerance="10"
   inkscape:pageopacity="0"
   inkscape:pageshadow="2"
   inkscape:window-width="1539"
   inkscape:window-height="1106"
   id="namedview3397"
   showgrid="false"
   inkscape:zoom="1.2627157"
   inkscape:cx="256"
   inkscape:cy="256"
   inkscape:window-x="3193"
   inkscape:window-y="26"
   inkscape:window-maximized="0"
   inkscape:current-layer="Layer_1" />




<g
   id="g3403"
   transform="matrix(0.69374043,0,0,0.69374043,82.362169,74.05894)"><g
     id="g3337">
	<g
   id="g3339">
		<path
   id="path3341"
   d="m 221.795,131.128 c -18.566,0 -33.67,15.105 -33.67,33.67 0,18.565 15.105,33.67 33.67,33.67 18.565,0 33.67,-15.103 33.67,-33.67 0.001,-18.565 -15.104,-33.67 -33.67,-33.67 z m 0,51.307 c -9.725,0 -17.637,-7.912 -17.637,-17.637 0,-9.725 7.912,-17.637 17.637,-17.637 9.725,0 17.637,7.912 17.637,17.637 0,9.725 -7.912,17.637 -17.637,17.637 z"
   inkscape:connector-curvature="0"
   style="fill:#ffffff" />
	</g>
</g><g
     id="g3343">
	<g
   id="g3345">
		<path
   id="path3347"
   d="m 127.733,131.128 c -18.566,0 -33.67,15.105 -33.67,33.67 0,18.565 15.105,33.67 33.67,33.67 18.565,0 33.67,-15.103 33.67,-33.67 0,-18.565 -15.105,-33.67 -33.67,-33.67 z m 0,51.307 c -9.725,0 -17.637,-7.912 -17.637,-17.637 0,-9.725 7.912,-17.637 17.637,-17.637 9.725,0 17.637,7.912 17.637,17.637 0,9.725 -7.912,17.637 -17.637,17.637 z"
   inkscape:connector-curvature="0"
   style="fill:#ffffff" />
	</g>
</g><g
     id="g3349">
	<g
   id="g3351">
		<path
   id="path3353"
   d="m 512,327.27 c 0,-40.141 -17.926,-77.462 -50.476,-105.085 -3.376,-2.864 -8.436,-2.449 -11.299,0.926 -2.865,3.376 -2.451,8.435 0.925,11.299 28.901,24.528 44.818,57.505 44.818,92.86 0,38.173 -19.04,74.162 -52.24,98.736 -2.545,1.884 -3.743,5.091 -3.056,8.182 l 8.685,39.081 -41.19,-24.715 c -2.005,-1.202 -4.438,-1.471 -6.657,-0.732 -16.44,5.474 -33.748,8.25 -51.446,8.25 -80.451,0 -145.904,-57.78 -145.904,-128.802 0,-71.022 65.453,-128.802 145.904,-128.802 26.433,0 52.322,6.306 74.871,18.239 3.911,2.07 8.765,0.577 10.835,-3.336 2.072,-3.913 0.577,-8.764 -3.336,-10.835 -24.85,-13.149 -53.333,-20.101 -82.37,-20.101 -0.355,0 -0.707,0.01 -1.06,0.012 0.336,-3.973 0.526,-7.968 0.526,-11.948 C 349.53,84.349 271.131,14.262 174.766,14.262 78.401,14.262 0,84.35 0,170.499 c 0,17.931 3.369,35.515 10.014,52.265 1.695,4.275 6.813,6.263 10.956,4.255 3.726,-1.806 5.474,-6.32 3.947,-10.167 -5.896,-14.86 -8.885,-30.455 -8.885,-46.353 0,-77.309 71.206,-140.204 158.731,-140.204 87.525,0 158.732,62.895 158.732,140.204 0,4.253 -0.223,8.526 -0.654,12.756 -74.909,7.116 -134.723,60.097 -143.574,126.857 -4.808,0.385 -9.674,0.59 -14.503,0.59 -28.915,0 -57.224,-6.945 -81.868,-20.082 -2.357,-1.257 -5.187,-1.257 -7.544,10e-4 L 48.631,310.205 61.604,275.61 c 1.139,-3.041 0.335,-6.468 -2.042,-8.68 -7.636,-7.114 -14.442,-14.95 -20.231,-23.292 -2.525,-3.635 -7.519,-4.541 -11.157,-2.015 -3.637,2.524 -4.54,7.519 -2.016,11.157 5.437,7.835 11.673,15.262 18.583,22.135 l -18.577,49.541 c -2.533,6.754 4.885,13.3 11.279,9.888 l 51.738,-27.593 c 26.037,13.088 55.529,19.986 85.583,19.986 4.449,0 8.93,-0.155 13.375,-0.455 -0.002,0.33 -0.014,0.658 -0.014,0.99 0,79.862 72.644,144.835 161.937,144.835 18.158,0 35.958,-2.667 52.969,-7.933 l 54.071,32.445 c 5.928,3.552 13.443,-1.897 11.95,-8.614 l -11.622,-52.3 C 492.178,408.183 512,368.94 512,327.27 Z"
   inkscape:connector-curvature="0"
   style="fill:#ffffff" />
	</g>
</g><g
     id="g3355">
	<g
   id="g3357">
		<path
   id="path3359"
   d="m 298.756,293.6 c -18.566,0 -33.67,15.105 -33.67,33.67 0,18.565 15.105,33.67 33.67,33.67 18.565,0 33.67,-15.105 33.67,-33.67 0,-18.565 -15.105,-33.67 -33.67,-33.67 z m 0,51.307 c -9.725,0 -17.637,-7.912 -17.637,-17.637 0,-9.725 7.912,-17.637 17.637,-17.637 9.725,0 17.637,7.913 17.637,17.637 0,9.725 -7.912,17.637 -17.637,17.637 z"
   inkscape:connector-curvature="0"
   style="fill:#ffffff" />
	</g>
</g><g
     id="g3361">
	<g
   id="g3363">
		<path
   id="path3365"
   d="m 401.37,293.6 c -18.566,0 -33.67,15.105 -33.67,33.67 0,18.565 15.105,33.67 33.67,33.67 18.566,0 33.67,-15.105 33.67,-33.67 0,-18.565 -15.105,-33.67 -33.67,-33.67 z m 0,51.307 c -9.725,0 -17.637,-7.912 -17.637,-17.637 0,-9.725 7.912,-17.637 17.637,-17.637 9.725,0 17.637,7.912 17.637,17.637 0,9.725 -7.913,17.637 -17.637,17.637 z"
   inkscape:connector-curvature="0"
   style="fill:#ffffff" />
	</g>
</g></g>
<g
   id="g3367">
</g>
<g
   id="g3369">
</g>
<g
   id="g3371">
</g>
<g
   id="g3373">
</g>
<g
   id="g3375">
</g>
<g
   id="g3377">
</g>
<g
   id="g3379">
</g>
<g
   id="g3381">
</g>
<g
   id="g3383">
</g>
<g
   id="g3385">
</g>
<g
   id="g3387">
</g>
<g
   id="g3389">
</g>
<g
   id="g3391">
</g>
<g
   id="g3393">
</g>
<g
   id="g3395">
</g>
</svg>