<?xml version="1.0" encoding="UTF-8" standalone="no"?>
<!-- Generator: Adobe Illustrator 16.0.0, SVG Export Plug-In . SVG Version: 6.00 Build 0)  -->

<svg
   xmlns:dc="http://purl.org/dc/elements/1.1/"
   xmlns:cc="http://creativecommons.org/ns#"
   xmlns:rdf="http://www.w3.org/1999/02/22-rdf-syntax-ns#"
   xmlns:svg="http://www.w3.org/2000/svg"
   xmlns="http://www.w3.org/2000/svg"
   xmlns:sodipodi="http://sodipodi.sourceforge.net/DTD/sodipodi-0.dtd"
   xmlns:inkscape="http://www.inkscape.org/namespaces/inkscape"
   version="1.1"
   id="Capa_1"
   x="0px"
   y="0px"
   width="512px"
   height="512px"
   viewBox="0 0 101.623 101.623"
   style="enable-background:new 0 0 101.623 101.623;"
   xml:space="preserve"
   inkscape:version="0.91 r13725"
   sodipodi:docname="snapshot.svg"><metadata
   id="metadata3381"><rdf:RDF><cc:Work
       rdf:about=""><dc:format>image/svg+xml</dc:format><dc:type
         rdf:resource="http://purl.org/dc/dcmitype/StillImage" /></cc:Work></rdf:RDF></metadata><defs
   id="defs3379" /><sodipodi:namedview
   pagecolor="#ffffff"
   bordercolor="#666666"
   borderopacity="1"
   objecttolerance="10"
   gridtolerance="10"
   guidetolerance="10"
   inkscape:pageopacity="0"
   inkscape:pageshadow="2"
   inkscape:window-width="960"
   inkscape:window-height="778"
   id="namedview3377"
   showgrid="false"
   inkscape:zoom="1.1885649"
   inkscape:cx="256"
   inkscape:cy="256"
   inkscape:window-x="3385"
   inkscape:window-y="417"
   inkscape:window-maximized="0"
   inkscape:current-layer="Capa_1" />
<g
   id="g3337"
   transform="matrix(0.77815947,0,0,0.77815947,11.355547,11.417948)">
	<g
   id="g3339">
		<path
   d="M 81.09,17.089 C 70.173,6.172 52.409,6.172 41.492,17.089 31.535,27.046 30.664,42.694 38.868,53.653 l -4.854,4.854 c -2.303,-0.465 -4.787,0.191 -6.572,1.978 l -20.86,20.86 c -2.831,2.831 -2.831,7.422 0,10.253 2.831,2.831 7.422,2.831 10.253,0 L 37.694,70.739 c 1.786,-1.784 2.442,-4.27 1.977,-6.571 l 4.854,-4.854 C 55.484,67.519 71.132,66.647 81.089,56.69 92.007,45.771 92.007,28.006 81.09,17.089 Z M 47.149,51.031 c -7.798,-7.799 -7.798,-20.486 0,-28.284 7.798,-7.798 20.486,-7.799 28.285,0 7.799,7.798 7.797,20.486 0,28.284 -7.799,7.798 -20.486,7.798 -28.285,0 z"
   id="path3341"
   inkscape:connector-curvature="0"
   style="fill:#ffffff" />
		<path
   d="m 7.123,5.978 20.877,0 0,-4 -20.877,0 C 3.195,1.978 0,5.172 0,9.102 l 0,20.877 4,0 L 4,9.102 C 3.999,7.378 5.401,5.978 7.123,5.978 Z"
   id="path3343"
   inkscape:connector-curvature="0"
   style="fill:#ffffff" />
		<path
   d="m 97.623,71.645 0,20.877 c 0,1.724 -1.4,3.124 -3.123,3.124 l -20.877,0 0,4 20.877,0 c 3.928,0 7.123,-3.195 7.123,-7.124 l 0,-20.877 -4,0 z"
   id="path3345"
   inkscape:connector-curvature="0"
   style="fill:#ffffff" />
	</g>
</g>
<g
   id="g3347">
</g>
<g
   id="g3349">
</g>
<g
   id="g3351">
</g>
<g
   id="g3353">
</g>
<g
   id="g3355">
</g>
<g
   id="g3357">
</g>
<g
   id="g3359">
</g>
<g
   id="g3361">
</g>
<g
   id="g3363">
</g>
<g
   id="g3365">
</g>
<g
   id="g3367">
</g>
<g
   id="g3369">
</g>
<g
   id="g3371">
</g>
<g
   id="g3373">
</g>
<g
   id="g3375">
</g>
</svg>