<?xml version="1.0" standalone="no"?>
<!DOCTYPE svg PUBLIC "-//W3C//DTD SVG 20010904//EN"
 "http://www.w3.org/TR/2001/REC-SVG-20010904/DTD/svg10.dtd">
<svg version="1.0" xmlns="http://www.w3.org/2000/svg"
 width="1600.000000pt" height="1600.000000pt" viewBox="0 0 1600.000000 1600.000000"
 preserveAspectRatio="xMidYMid meet">
<metadata>
Created by potrace 1.15, written by Peter Selinger 2001-2017
</metadata>
<g transform="translate(0.000000,1600.000000) scale(0.100000,-0.100000)"
fill="#FFFFFF" stroke="none">
<path d="M2668 13986 c-280 -62 -510 -255 -609 -511 -49 -127 -62 -203 -56
-340 6 -137 29 -230 83 -339 88 -175 227 -308 408 -391 152 -70 141 -69 760
-73 l560 -3 -821 -822 c-592 -593 -832 -840 -862 -887 -48 -76 -97 -197 -117
-290 -11 -54 -14 -390 -14 -1993 0 -1720 2 -1936 16 -2005 50 -245 215 -460
438 -572 138 -69 231 -92 376 -92 171 -1 318 41 462 134 47 29 913 890 3308
3284 l3245 3244 650 0 650 0 -4476 -4477 c-2462 -2463 -4492 -4501 -4511
-4528 -52 -72 -104 -180 -128 -266 -29 -100 -37 -288 -17 -384 72 -339 323
-590 660 -661 58 -12 356 -14 1993 -14 1717 0 1933 2 2002 16 95 19 201 63
284 116 46 29 764 741 2720 2696 l2658 2657 0 -655 0 -655 -1423 -1425 c-1307
-1309 -1426 -1431 -1464 -1500 -113 -204 -140 -429 -78 -643 69 -238 220 -418
440 -523 179 -86 9 -79 1820 -82 1209 -3 1627 0 1680 9 285 48 534 249 636
514 49 127 62 203 56 340 -6 137 -29 230 -83 339 -88 175 -227 308 -408 391
-152 70 -141 69 -760 73 l-560 3 821 822 c590 592 832 840 862 887 48 76 97
197 117 290 11 54 14 390 14 1993 0 1720 -2 1936 -16 2005 -50 245 -215 460
-438 572 -138 69 -231 92 -376 92 -171 1 -318 -41 -462 -134 -47 -29 -913
-890 -3308 -3284 l-3245 -3244 -650 0 -650 0 4476 4478 c2462 2462 4492 4500
4511 4527 52 72 104 180 128 266 29 100 37 288 17 384 -72 339 -323 590 -660
661 -58 12 -356 14 -1993 14 -2124 0 -1994 4 -2153 -62 -41 -17 -105 -52 -143
-77 -50 -34 -788 -766 -2718 -2696 l-2650 -2650 0 655 0 655 1423 1425 c1307
1309 1426 1431 1464 1500 113 204 140 429 78 643 -69 238 -220 418 -440 523
-179 86 -6 79 -1840 81 -1278 1 -1642 -2 -1687 -11z"/>
</g>
</svg>
