<?xml version="1.0" encoding="UTF-8" standalone="no"?>
<!-- Generator: Adobe Illustrator 18.1.1, SVG Export Plug-In . SVG Version: 6.00 Build 0)  -->

<svg
   xmlns:dc="http://purl.org/dc/elements/1.1/"
   xmlns:cc="http://creativecommons.org/ns#"
   xmlns:rdf="http://www.w3.org/1999/02/22-rdf-syntax-ns#"
   xmlns:svg="http://www.w3.org/2000/svg"
   xmlns="http://www.w3.org/2000/svg"
   xmlns:sodipodi="http://sodipodi.sourceforge.net/DTD/sodipodi-0.dtd"
   xmlns:inkscape="http://www.inkscape.org/namespaces/inkscape"
   version="1.1"
   id="Capa_1"
   x="0px"
   y="0px"
   viewBox="0 0 612 612"
   style="enable-background:new 0 0 612 612;"
   xml:space="preserve"
   width="512px"
   height="512px"
   inkscape:version="0.91 r13725"
   sodipodi:docname="profile.svg"><metadata
   id="metadata3421"><rdf:RDF><cc:Work
       rdf:about=""><dc:format>image/svg+xml</dc:format><dc:type
         rdf:resource="http://purl.org/dc/dcmitype/StillImage" /></cc:Work></rdf:RDF></metadata><defs
   id="defs3419" /><sodipodi:namedview
   pagecolor="#ffffff"
   bordercolor="#666666"
   borderopacity="1"
   objecttolerance="10"
   gridtolerance="10"
   guidetolerance="10"
   inkscape:pageopacity="0"
   inkscape:pageshadow="2"
   inkscape:window-width="640"
   inkscape:window-height="480"
   id="namedview3417"
   showgrid="false"
   inkscape:zoom="0.4609375"
   inkscape:cx="256"
   inkscape:cy="256"
   inkscape:window-x="1767"
   inkscape:window-y="232"
   inkscape:window-maximized="0"
   inkscape:current-layer="g3377" />
<g
   id="g3377">
	<g
   id="g3379"
   transform="matrix(0.75836541,0,0,0.75836541,74.142587,78.673802)">
		<path
   d="M 270.853,310.198 C 357.03,310.193 388.037,223.907 396.154,153.029 406.151,65.715 364.863,0 270.853,0 176.856,0 135.544,65.71 145.552,153.029 c 8.125,70.878 39.122,157.175 125.301,157.169 z"
   id="path3381"
   inkscape:connector-curvature="0"
   style="fill:#ffffff" />
		<path
   d="m 459.288,346.115 c 2.773,0 5.528,0.083 8.264,0.235 -4.099,-5.85 -8.848,-11.01 -14.403,-15.158 -16.559,-12.359 -38.005,-16.414 -56.964,-23.864 -9.227,-3.625 -17.493,-7.226 -25.253,-11.326 -26.184,28.715 -60.328,43.736 -100.09,43.74 -39.751,0 -73.89,-15.021 -100.072,-43.74 -7.76,4.101 -16.026,7.701 -25.253,11.326 -18.959,7.451 -40.404,11.505 -56.964,23.864 -28.638,21.375 -36.039,69.46 -41.854,102.26 -4.799,27.076 -8.023,54.707 -8.964,82.209 -0.729,21.303 9.79,24.29 27.611,30.721 22.315,8.048 45.356,14.023 68.552,18.921 44.797,9.46 90.973,16.729 136.951,17.056 22.277,-0.159 44.601,-1.956 66.792,-4.835 -16.431,-23.807 -26.068,-52.645 -26.068,-83.695 0.001,-81.451 66.266,-147.714 147.715,-147.714 z"
   id="path3383"
   inkscape:connector-curvature="0"
   style="fill:#ffffff" />
		<path
   d="m 456.127,612 c 65.262,0 118.172,-52.909 118.172,-118.171 0,-65.262 -52.909,-118.171 -118.172,-118.171 -65.263,0 -118.172,52.909 -118.172,118.171 0,65.262 52.909,118.171 118.172,118.171 z M 407.491,503.955 c 3.234,-3.233 7.471,-4.849 11.709,-4.849 4.239,0 8.476,1.616 11.71,4.851 l 8.655,8.655 0,-77.546 c 0,-9.146 7.414,-16.559 16.559,-16.559 9.145,0 16.559,7.414 16.559,16.559 l 0,77.55 8.662,-8.662 c 6.467,-6.465 16.952,-6.467 23.419,0.002 6.467,6.467 6.467,16.953 0,23.419 l -36.931,36.927 c -6.467,6.466 -16.952,6.467 -23.419,-0.002 l -36.925,-36.927 c -6.467,-6.466 -6.467,-16.951 0.002,-23.418 z"
   id="path3385"
   inkscape:connector-curvature="0"
   style="fill:#ffffff" />
	</g>
</g>
<g
   id="g3387">
</g>
<g
   id="g3389">
</g>
<g
   id="g3391">
</g>
<g
   id="g3393">
</g>
<g
   id="g3395">
</g>
<g
   id="g3397">
</g>
<g
   id="g3399">
</g>
<g
   id="g3401">
</g>
<g
   id="g3403">
</g>
<g
   id="g3405">
</g>
<g
   id="g3407">
</g>
<g
   id="g3409">
</g>
<g
   id="g3411">
</g>
<g
   id="g3413">
</g>
<g
   id="g3415">
</g>
</svg>