<?xml version="1.0" encoding="UTF-8" standalone="no"?>
<!-- Generator: Adobe Illustrator 18.0.0, SVG Export Plug-In . SVG Version: 6.00 Build 0)  -->

<svg
   xmlns:dc="http://purl.org/dc/elements/1.1/"
   xmlns:cc="http://creativecommons.org/ns#"
   xmlns:rdf="http://www.w3.org/1999/02/22-rdf-syntax-ns#"
   xmlns:svg="http://www.w3.org/2000/svg"
   xmlns="http://www.w3.org/2000/svg"
   xmlns:sodipodi="http://sodipodi.sourceforge.net/DTD/sodipodi-0.dtd"
   xmlns:inkscape="http://www.inkscape.org/namespaces/inkscape"
   version="1.1"
   id="Capa_1"
   x="0px"
   y="0px"
   viewBox="0 0 58.201 58.201"
   style="enable-background:new 0 0 58.201 58.201;"
   xml:space="preserve"
   width="512px"
   height="512px"
   inkscape:version="0.91 r13725"
   sodipodi:docname="server.svg"><metadata
   id="metadata3432"><rdf:RDF><cc:Work
       rdf:about=""><dc:format>image/svg+xml</dc:format><dc:type
         rdf:resource="http://purl.org/dc/dcmitype/StillImage" /><dc:title></dc:title></cc:Work></rdf:RDF></metadata><defs
   id="defs3430" /><sodipodi:namedview
   pagecolor="#ffffff"
   bordercolor="#666666"
   borderopacity="1"
   objecttolerance="10"
   gridtolerance="10"
   guidetolerance="10"
   inkscape:pageopacity="0"
   inkscape:pageshadow="2"
   inkscape:window-width="2560"
   inkscape:window-height="1361"
   id="namedview3428"
   showgrid="false"
   inkscape:zoom="0.4609375"
   inkscape:cx="256"
   inkscape:cy="256"
   inkscape:window-x="2551"
   inkscape:window-y="-9"
   inkscape:window-maximized="1"
   inkscape:current-layer="Capa_1" />
<g
   id="g3386"
   transform="matrix(0.80932203,0,0,0.80932203,6.9133512,6.0959974)">
	<path
   d="m 52.524,45.537 c -0.429,-4.107 -3.852,-7.332 -7.953,-7.332 -2.564,0 -4.984,1.286 -6.48,3.402 -0.291,-0.051 -0.586,-0.076 -0.883,-0.076 -2.32,0 -4.381,1.577 -5.066,3.813 -1.907,1.131 -3.116,3.241 -3.116,5.502 0,3.507 2.785,6.359 6.208,6.359 l 10.774,0 c 0.06,0 0.118,-0.004 0.171,-0.008 0.062,0.004 0.124,0.008 0.188,0.008 l 4.31,0 c 3.225,0 5.849,-2.687 5.849,-5.989 -0.001,-2.6 -1.642,-4.874 -4.002,-5.679 z m -1.847,9.668 -4.352,-0.003 -0.17,-0.006 -10.922,0.009 c -2.32,0 -4.208,-1.956 -4.208,-4.359 0,-1.665 0.949,-3.21 2.417,-3.935 l 0.435,-0.214 0.102,-0.475 c 0.331,-1.56 1.689,-2.691 3.229,-2.691 0.345,0 0.688,0.057 1.02,0.168 l 0.777,0.261 0.408,-0.711 c 1.096,-1.906 3.024,-3.044 5.158,-3.044 3.265,0 5.955,2.747 5.998,6.123 l 0.011,0.813 0.799,0.155 c 1.823,0.354 3.146,2.002 3.146,3.919 0,2.2 -1.726,3.99 -3.848,3.99 z"
   id="path3388"
   inkscape:connector-curvature="0"
   style="fill:#ffffff" />
	<path
   d="m 29.875,43.044 c 1.363,-2.618 3.96,-4.337 6.872,-4.5 2.066,-2.127 4.894,-3.339 7.824,-3.339 2.531,0 4.916,0.916 6.818,2.455 0.095,-0.087 0.203,-0.173 0.287,-0.26 l 0,-1.289 0,-0.5 0,-0.5 0,-7.111 c -1.318,0.905 -3.028,1.697 -5.025,2.367 -4.21,1.472 -10.048,2.502 -17.369,2.703 -0.87,0.027 -1.74,0.041 -2.606,0.041 -0.869,0 -1.742,-0.014 -2.614,-0.042 C 16.721,32.868 10.871,31.831 6.659,30.352 4.68,29.685 2.984,28.899 1.676,28 l 0,7.111 0,0.5 0,0.5 0,1.289 c 2.846,2.971 12.394,5.711 25,5.711 1.093,0 2.154,-0.028 3.199,-0.067 z"
   id="path3390"
   inkscape:connector-curvature="0"
   style="fill:#ffffff" />
	<path
   d="m 24.311,29.965 c 0.326,0.009 0.651,0.018 0.982,0.023 0.456,0.008 0.917,0.012 1.383,0.012 0.466,0 0.926,-0.004 1.383,-0.011 0.33,-0.005 0.656,-0.015 0.982,-0.023 0.116,-0.003 0.234,-0.005 0.349,-0.008 11.253,-0.359 19.648,-2.915 22.286,-5.668 l 0,-1.29 0,-0.5 0,-0.5 0,-7.111 C 46.808,18.232 36.52,20 26.676,20 16.832,20 6.543,18.232 1.676,14.889 l 0,7.111 0,0.5 0,0.5 0,1.289 c 2.638,2.754 11.033,5.31 22.286,5.668 0.115,0.003 0.233,0.005 0.349,0.008 z"
   id="path3392"
   inkscape:connector-curvature="0"
   style="fill:#ffffff" />
	<path
   d="m 51.676,11.306 0,-1.806 0,-0.5 C 51.676,8.832 51.62,8.681 51.541,8.542 50.418,4.241 41.791,0 26.676,0 11.598,0 2.979,4.22 1.822,8.51 1.737,8.657 1.676,8.818 1.676,9 l 0,0.5 0,1.806 c 2.836,2.961 12.316,5.694 25,5.694 12.684,0 22.163,-2.733 25,-5.694 z"
   id="path3394"
   inkscape:connector-curvature="0"
   style="fill:#ffffff" />
	<path
   d="m 26.025,50.845 c 0,-1.652 0.451,-3.249 1.249,-4.651 -0.201,10e-4 -0.395,0.007 -0.599,0.007 -12.346,0 -20.866,-2.29 -25,-5.201 l 0,8.201 c 0,0.162 0.043,0.315 0.117,0.451 1.181,4.895 11.747,8.549 24.883,8.549 0.95,0 1.881,-0.024 2.801,-0.062 -2.1,-1.717 -3.451,-4.347 -3.451,-7.294 z"
   id="path3396"
   inkscape:connector-curvature="0"
   style="fill:#ffffff" />
</g>
<g
   id="g3398">
</g>
<g
   id="g3400">
</g>
<g
   id="g3402">
</g>
<g
   id="g3404">
</g>
<g
   id="g3406">
</g>
<g
   id="g3408">
</g>
<g
   id="g3410">
</g>
<g
   id="g3412">
</g>
<g
   id="g3414">
</g>
<g
   id="g3416">
</g>
<g
   id="g3418">
</g>
<g
   id="g3420">
</g>
<g
   id="g3422">
</g>
<g
   id="g3424">
</g>
<g
   id="g3426">
</g>
</svg>