<?xml version="1.0" encoding="UTF-8" standalone="no"?>
<!-- Generator: Adobe Illustrator 16.0.0, SVG Export Plug-In . SVG Version: 6.00 Build 0)  -->

<svg
   xmlns:dc="http://purl.org/dc/elements/1.1/"
   xmlns:cc="http://creativecommons.org/ns#"
   xmlns:rdf="http://www.w3.org/1999/02/22-rdf-syntax-ns#"
   xmlns:svg="http://www.w3.org/2000/svg"
   xmlns="http://www.w3.org/2000/svg"
   xmlns:sodipodi="http://sodipodi.sourceforge.net/DTD/sodipodi-0.dtd"
   xmlns:inkscape="http://www.inkscape.org/namespaces/inkscape"
   version="1.1"
   id="Capa_1"
   x="0px"
   y="0px"
   width="512px"
   height="512px"
   viewBox="0 0 382.162 382.162"
   style="enable-background:new 0 0 382.162 382.162;"
   xml:space="preserve"
   inkscape:version="0.91 r13725"
   sodipodi:docname="bear.svg"><metadata
   id="metadata3385"><rdf:RDF><cc:Work
       rdf:about=""><dc:format>image/svg+xml</dc:format><dc:type
         rdf:resource="http://purl.org/dc/dcmitype/StillImage" /></cc:Work></rdf:RDF></metadata><defs
   id="defs3383" /><sodipodi:namedview
   pagecolor="#ffffff"
   bordercolor="#666666"
   borderopacity="1"
   objecttolerance="10"
   gridtolerance="10"
   guidetolerance="10"
   inkscape:pageopacity="0"
   inkscape:pageshadow="2"
   inkscape:window-width="889"
   inkscape:window-height="731"
   id="namedview3381"
   showgrid="false"
   inkscape:zoom="1.0988979"
   inkscape:cx="256"
   inkscape:cy="256"
   inkscape:window-x="512"
   inkscape:window-y="84"
   inkscape:window-maximized="0"
   inkscape:current-layer="Capa_1" />
<g
   id="g3337"
   transform="matrix(0.78849549,0,0,0.78849549,40.754111,40.489988)">
	<path
   d="m 55.819,138.797 c 3.809,-4.957 7.986,-9.691 12.495,-14.173 C 59.153,118.867 53,108.734 53,97.132 53,79.193 67.596,64.597 85.534,64.597 c 16.039,0 29.313,11.682 31.977,26.966 5.73,-2.5 11.633,-4.744 17.732,-6.652 -5.505,-22.359 -25.669,-39.019 -49.709,-39.019 -28.25,0 -51.24,22.989 -51.24,51.24 0,17.177 8.525,32.367 21.525,41.665 z"
   id="path3339"
   inkscape:connector-curvature="0"
   style="fill:#ffffff" />
	<path
   d="m 297.535,64.597 c 17.944,0 32.534,14.596 32.534,32.535 0,11.834 -6.418,22.115 -15.893,27.809 4.518,4.521 8.683,9.292 12.494,14.292 13.336,-9.258 22.104,-24.667 22.104,-42.094 0,-28.257 -22.987,-51.24 -51.24,-51.24 -24.132,0 -44.372,16.791 -49.779,39.299 6.113,1.946 12.038,4.217 17.774,6.753 2.504,-15.477 15.845,-27.354 32.006,-27.354 z"
   id="path3341"
   inkscape:connector-curvature="0"
   style="fill:#ffffff" />
	<path
   d="m 11.505,213.173 c 0,86.782 80.666,157.392 179.818,157.392 99.147,0 179.811,-70.609 179.811,-157.392 0,-19.827 -4.153,-39.104 -12.355,-57.399 14.937,-15.829 23.383,-36.831 23.383,-58.642 0,-47.164 -38.368,-85.535 -85.535,-85.535 -32.309,0 -61.378,17.933 -75.98,46.278 C 201.15,55.074 181.074,55.086 161.54,57.948 146.947,29.561 117.872,11.597 85.523,11.597 38.371,11.597 0,49.968 0,97.132 c 0,21.991 8.567,43.123 23.705,58.985 -8.099,18.195 -12.2,37.358 -12.2,57.056 z M 18.706,97.132 c 0,-36.852 29.98,-66.829 66.829,-66.829 27.249,0 51.523,16.316 61.851,41.571 l 2.868,7.021 7.468,-1.367 c 21.948,-4.021 44.907,-4.034 66.773,-0.085 l 7.441,1.34 2.868,-6.997 c 10.345,-25.203 34.61,-41.491 61.822,-41.491 36.852,0 66.829,29.98 66.829,66.832 0,18.867 -8.117,36.97 -22.244,49.669 l -5.327,4.783 3.232,6.391 c 5.529,10.952 9.354,22.329 11.448,33.996 1.339,7.143 2.07,14.462 2.07,21.927 0,38.052 -18.183,72.486 -47.544,97.378 -29.168,25.051 -69.398,40.566 -113.768,40.566 -31.17,0 -60.282,-7.679 -84.968,-20.923 -46.092,-24.21 -76.821,-67.553 -76.821,-117.021 0,-20.009 5.069,-39.004 14.112,-56.157 l 2.968,-5.907 -5.376,-4.771 C 26.917,134.352 18.706,116.157 18.706,97.132 Z"
   id="path3343"
   inkscape:connector-curvature="0"
   style="fill:#ffffff" />
	<path
   d="m 75.459,258.598 c 0,43.951 51.853,79.719 115.597,79.719 63.738,0 115.594,-35.768 115.594,-79.719 0,-43.964 -51.855,-79.729 -115.6,-79.729 -63.738,0 -115.591,35.765 -115.591,79.729 z m 115.591,-9.354 c -14.636,0 -25.982,-6.99 -25.982,-12.994 0,-6.004 11.347,-12.981 25.982,-12.981 14.629,0 25.979,6.978 25.979,12.981 0,6.003 -11.35,12.994 -25.979,12.994 z m 0,-51.672 c 53.423,0 96.894,27.377 96.894,61.025 0,31.651 -38.489,57.737 -87.538,60.715 l 0,-52.038 c 20.417,-2.978 35.33,-15.533 35.33,-31.024 0,-17.768 -19.626,-31.688 -44.686,-31.688 -25.06,0 -44.688,13.92 -44.688,31.688 0,15.491 14.916,28.047 35.335,31.024 l 0,52.038 c -49.048,-2.978 -87.538,-29.063 -87.538,-60.715 0.007,-33.648 43.465,-61.025 96.891,-61.025 z"
   id="path3345"
   inkscape:connector-curvature="0"
   style="fill:#ffffff" />
	<path
   d="m 122.462,157.271 c -16.082,0 -16.082,24.941 0,24.941 16.082,0 16.087,-24.941 0,-24.941 z"
   id="path3347"
   inkscape:connector-curvature="0"
   style="fill:#ffffff" />
	<path
   d="m 259.641,182.212 c 16.075,0 16.075,-24.941 0,-24.941 -16.087,0 -16.087,24.941 0,24.941 z"
   id="path3349"
   inkscape:connector-curvature="0"
   style="fill:#ffffff" />
</g>
<g
   id="g3351">
</g>
<g
   id="g3353">
</g>
<g
   id="g3355">
</g>
<g
   id="g3357">
</g>
<g
   id="g3359">
</g>
<g
   id="g3361">
</g>
<g
   id="g3363">
</g>
<g
   id="g3365">
</g>
<g
   id="g3367">
</g>
<g
   id="g3369">
</g>
<g
   id="g3371">
</g>
<g
   id="g3373">
</g>
<g
   id="g3375">
</g>
<g
   id="g3377">
</g>
<g
   id="g3379">
</g>
</svg>