<?xml version="1.0" encoding="UTF-8" standalone="no"?>
<!-- Generator: Adobe Illustrator 16.0.0, SVG Export Plug-In . SVG Version: 6.00 Build 0)  -->

<svg
   xmlns:dc="http://purl.org/dc/elements/1.1/"
   xmlns:cc="http://creativecommons.org/ns#"
   xmlns:rdf="http://www.w3.org/1999/02/22-rdf-syntax-ns#"
   xmlns:svg="http://www.w3.org/2000/svg"
   xmlns="http://www.w3.org/2000/svg"
   xmlns:sodipodi="http://sodipodi.sourceforge.net/DTD/sodipodi-0.dtd"
   xmlns:inkscape="http://www.inkscape.org/namespaces/inkscape"
   version="1.1"
   id="Capa_1"
   x="0px"
   y="0px"
   width="512px"
   height="512px"
   viewBox="0 0 438.536 438.536"
   style="enable-background:new 0 0 438.536 438.536;"
   xml:space="preserve"
   inkscape:version="0.91 r13725"
   sodipodi:docname="trello.svg"><metadata
   id="metadata3375"><rdf:RDF><cc:Work
       rdf:about=""><dc:format>image/svg+xml</dc:format><dc:type
         rdf:resource="http://purl.org/dc/dcmitype/StillImage" /></cc:Work></rdf:RDF></metadata><defs
   id="defs3373" /><sodipodi:namedview
   pagecolor="#ffffff"
   bordercolor="#666666"
   borderopacity="1"
   objecttolerance="10"
   gridtolerance="10"
   guidetolerance="10"
   inkscape:pageopacity="0"
   inkscape:pageshadow="2"
   inkscape:window-width="1199"
   inkscape:window-height="877"
   id="namedview3371"
   showgrid="false"
   inkscape:zoom="1.377438"
   inkscape:cx="256"
   inkscape:cy="256"
   inkscape:window-x="512"
   inkscape:window-y="119"
   inkscape:window-maximized="0"
   inkscape:current-layer="Capa_1" />
<g
   id="g3337"
   transform="matrix(0.71641256,0,0,0.71641256,59.694805,59.072703)">
	<path
   d="M 433.113,5.424 C 429.496,1.807 425.215,0 420.267,0 L 18.276,0 C 13.324,0 9.041,1.807 5.425,5.424 1.808,9.04 0.001,13.322 0.001,18.271 l 0,401.991 c 0,4.948 1.807,9.233 5.424,12.847 3.619,3.617 7.902,5.428 12.851,5.428 l 401.991,0 c 4.948,0 9.229,-1.811 12.847,-5.428 3.614,-3.613 5.421,-7.898 5.421,-12.847 l 0,-401.991 C 438.534,13.319 436.73,9.04 433.113,5.424 Z M 201,347.172 c 0,2.669 -0.855,4.853 -2.568,6.57 -1.714,1.707 -3.904,2.566 -6.567,2.566 l -137.044,0 c -2.666,0 -4.853,-0.859 -6.567,-2.566 -1.709,-1.718 -2.568,-3.901 -2.568,-6.57 l 0,-292.359 c 0,-2.666 0.855,-4.853 2.568,-6.565 1.714,-1.711 3.901,-2.57 6.567,-2.57 l 137.044,0 c 2.663,0 4.853,0.859 6.567,2.57 1.713,1.712 2.568,3.899 2.568,6.565 l 0,292.359 z M 392.858,237.539 c 0,2.666 -0.855,4.856 -2.566,6.563 -1.711,1.718 -3.901,2.57 -6.563,2.57 l -137.038,0 c -2.677,0 -4.859,-0.853 -6.571,-2.57 -1.711,-1.707 -2.566,-3.897 -2.566,-6.563 l 0,-182.726 c 0,-2.666 0.855,-4.853 2.566,-6.565 1.712,-1.711 3.895,-2.57 6.571,-2.57 l 137.037,0 c 2.662,0 4.853,0.859 6.563,2.57 1.711,1.712 2.566,3.899 2.566,6.565 l 0,182.726 z"
   id="path3339"
   inkscape:connector-curvature="0"
   style="fill:#ffffff" />
</g>
<g
   id="g3341">
</g>
<g
   id="g3343">
</g>
<g
   id="g3345">
</g>
<g
   id="g3347">
</g>
<g
   id="g3349">
</g>
<g
   id="g3351">
</g>
<g
   id="g3353">
</g>
<g
   id="g3355">
</g>
<g
   id="g3357">
</g>
<g
   id="g3359">
</g>
<g
   id="g3361">
</g>
<g
   id="g3363">
</g>
<g
   id="g3365">
</g>
<g
   id="g3367">
</g>
<g
   id="g3369">
</g>
</svg>