<?xml version="1.0" encoding="UTF-8" standalone="no"?>
<!-- Generator: Adobe Illustrator 19.0.0, SVG Export Plug-In . SVG Version: 6.00 Build 0)  -->

<svg
   xmlns:dc="http://purl.org/dc/elements/1.1/"
   xmlns:cc="http://creativecommons.org/ns#"
   xmlns:rdf="http://www.w3.org/1999/02/22-rdf-syntax-ns#"
   xmlns:svg="http://www.w3.org/2000/svg"
   xmlns="http://www.w3.org/2000/svg"
   xmlns:sodipodi="http://sodipodi.sourceforge.net/DTD/sodipodi-0.dtd"
   xmlns:inkscape="http://www.inkscape.org/namespaces/inkscape"
   version="1.1"
   id="Layer_1"
   x="0px"
   y="0px"
   viewBox="0 0 512 512"
   style="enable-background:new 0 0 512 512;"
   xml:space="preserve"
   width="512px"
   height="512px"
   inkscape:version="0.91 r13725"
   sodipodi:docname="google.svg"><metadata
   id="metadata3395"><rdf:RDF><cc:Work
       rdf:about=""><dc:format>image/svg+xml</dc:format><dc:type
         rdf:resource="http://purl.org/dc/dcmitype/StillImage" /></cc:Work></rdf:RDF></metadata><defs
   id="defs3393" /><sodipodi:namedview
   pagecolor="#ffffff"
   bordercolor="#666666"
   borderopacity="1"
   objecttolerance="10"
   gridtolerance="10"
   guidetolerance="10"
   inkscape:pageopacity="0"
   inkscape:pageshadow="2"
   inkscape:window-width="1233"
   inkscape:window-height="1069"
   id="namedview3391"
   showgrid="false"
   inkscape:zoom="1.2124786"
   inkscape:cx="256"
   inkscape:cy="256"
   inkscape:window-x="3194"
   inkscape:window-y="167"
   inkscape:window-maximized="0"
   inkscape:current-layer="Layer_1" />


















<g
   id="g3397"
   transform="matrix(0.76320461,0,0,0.76320461,58.55774,58.55772)"><g
     id="g3337">
	<g
   id="g3339">
		<path
   id="path3341"
   d="M 113.597,193.064 26.393,142.717 C 9.543,176.768 0.001,215.17 0,255.998 c 0,40.263 9.645,78.731 26.754,113.084 l 86.837,-50.135 c -8.565,-19.286 -13.418,-40.558 -13.417,-62.949 10e-4,-22.39 4.857,-43.655 13.423,-62.934 z"
   inkscape:connector-curvature="0"
   style="fill:#ffffff" />
	</g>
</g><g
     id="g3343">
	<g
   id="g3345">
		<path
   id="path3347"
   d="M 423.925,62.768 C 378.935,23.634 320.145,-0.043 255.823,0 167.822,0.059 89.276,44.985 43.127,113.824 l 87.275,50.39 c 28.381,-38.714 74.04,-64.041 125.601,-64.04 37.587,10e-4 72.042,13.437 98.954,35.701 6.588,5.449 16.218,4.95 22.263,-1.095 l 47.531,-47.531 c 6.854,-6.854 6.487,-18.121 -0.826,-24.481 z"
   inkscape:connector-curvature="0"
   style="fill:#ffffff" />
	</g>
</g><g
     id="g3349">
	<g
   id="g3351">
		<path
   id="path3353"
   d="m 510.247,226.38 c -0.997,-8.475 -8.122,-14.89 -16.653,-14.89 l -209.767,-0.011 c -9.22,0 -16.696,7.475 -16.696,16.696 l 0,66.727 c 0,9.22 7.475,16.696 16.696,16.696 l 117.548,0 c -10.827,28.179 -29.633,52.403 -53.575,70.013 l 49.928,86.478 c 50.256,-34.056 88.467,-85.547 105.297,-146.331 9.15,-33.049 10.797,-65.007 7.222,-95.378 z"
   inkscape:connector-curvature="0"
   style="fill:#ffffff" />
	</g>
</g><g
     id="g3355">
	<g
   id="g3357">
		<path
   id="path3359"
   d="m 318.93,398.381 c -19.255,8.578 -40.511,13.444 -62.927,13.446 C 204.384,411.828 158.751,386.5 130.39,347.801 L 43.487,397.975 C 89.249,466.137 166.915,512 256.001,512 c 40.272,0 78.603,-9.845 112.889,-27.084 l -49.96,-86.535 z"
   inkscape:connector-curvature="0"
   style="fill:#ffffff" />
	</g>
</g><g
     id="g3361">
</g><g
     id="g3363">
</g><g
     id="g3365">
</g><g
     id="g3367">
</g><g
     id="g3369">
</g><g
     id="g3371">
</g><g
     id="g3373">
</g><g
     id="g3375">
</g><g
     id="g3377">
</g><g
     id="g3379">
</g><g
     id="g3381">
</g><g
     id="g3383">
</g><g
     id="g3385">
</g><g
     id="g3387">
</g><g
     id="g3389">
</g></g>
</svg>