<?xml version="1.0" encoding="UTF-8" standalone="no"?>
<!-- Generator: Adobe Illustrator 19.0.0, SVG Export Plug-In . SVG Version: 6.00 Build 0)  -->

<svg
   xmlns:dc="http://purl.org/dc/elements/1.1/"
   xmlns:cc="http://creativecommons.org/ns#"
   xmlns:rdf="http://www.w3.org/1999/02/22-rdf-syntax-ns#"
   xmlns:svg="http://www.w3.org/2000/svg"
   xmlns="http://www.w3.org/2000/svg"
   xmlns:sodipodi="http://sodipodi.sourceforge.net/DTD/sodipodi-0.dtd"
   xmlns:inkscape="http://www.inkscape.org/namespaces/inkscape"
   version="1.1"
   id="Capa_1"
   x="0px"
   y="0px"
   viewBox="0 0 60 60"
   style="enable-background:new 0 0 60 60;"
   xml:space="preserve"
   width="512px"
   height="512px"
   inkscape:version="0.91 r13725"
   sodipodi:docname="log.svg"><metadata
   id="metadata3430"><rdf:RDF><cc:Work
       rdf:about=""><dc:format>image/svg+xml</dc:format><dc:type
         rdf:resource="http://purl.org/dc/dcmitype/StillImage" /></cc:Work></rdf:RDF></metadata><defs
   id="defs3428" /><sodipodi:namedview
   pagecolor="#ffffff"
   bordercolor="#666666"
   borderopacity="1"
   objecttolerance="10"
   gridtolerance="10"
   guidetolerance="10"
   inkscape:pageopacity="0"
   inkscape:pageshadow="2"
   inkscape:window-width="1130"
   inkscape:window-height="796"
   id="namedview3426"
   showgrid="false"
   inkscape:zoom="1.116333"
   inkscape:cx="256"
   inkscape:cy="252.53647"
   inkscape:window-x="2971"
   inkscape:window-y="351"
   inkscape:window-maximized="0"
   inkscape:current-layer="Capa_1" />
<g
   id="g3382"
   transform="matrix(0.88452706,0,0,0.88452706,4.2661991,3.046875)">
	<path
   d="m 42.5,22 -25,0 c -0.552,0 -1,0.447 -1,1 0,0.553 0.448,1 1,1 l 25,0 c 0.552,0 1,-0.447 1,-1 0,-0.553 -0.448,-1 -1,-1 z"
   id="path3384"
   inkscape:connector-curvature="0"
   style="fill:#ffffff" />
	<path
   d="m 17.5,16 10,0 c 0.552,0 1,-0.447 1,-1 0,-0.553 -0.448,-1 -1,-1 l -10,0 c -0.552,0 -1,0.447 -1,1 0,0.553 0.448,1 1,1 z"
   id="path3386"
   inkscape:connector-curvature="0"
   style="fill:#ffffff" />
	<path
   d="m 42.5,30 -25,0 c -0.552,0 -1,0.447 -1,1 0,0.553 0.448,1 1,1 l 25,0 c 0.552,0 1,-0.447 1,-1 0,-0.553 -0.448,-1 -1,-1 z"
   id="path3388"
   inkscape:connector-curvature="0"
   style="fill:#ffffff" />
	<path
   d="m 42.5,38 -25,0 c -0.552,0 -1,0.447 -1,1 0,0.553 0.448,1 1,1 l 25,0 c 0.552,0 1,-0.447 1,-1 0,-0.553 -0.448,-1 -1,-1 z"
   id="path3390"
   inkscape:connector-curvature="0"
   style="fill:#ffffff" />
	<path
   d="m 42.5,46 -25,0 c -0.552,0 -1,0.447 -1,1 0,0.553 0.448,1 1,1 l 25,0 c 0.552,0 1,-0.447 1,-1 0,-0.553 -0.448,-1 -1,-1 z"
   id="path3392"
   inkscape:connector-curvature="0"
   style="fill:#ffffff" />
	<path
   d="M 38.914,0 6.5,0 l 0,60 47,0 0,-45.414 L 38.914,0 Z M 39.5,3.414 50.086,14 39.5,14 39.5,3.414 Z M 8.5,58 l 0,-56 29,0 0,14 14,0 0,42 -43,0 z"
   id="path3394"
   inkscape:connector-curvature="0"
   style="fill:#ffffff" />
</g>
<g
   id="g3396">
</g>
<g
   id="g3398">
</g>
<g
   id="g3400">
</g>
<g
   id="g3402">
</g>
<g
   id="g3404">
</g>
<g
   id="g3406">
</g>
<g
   id="g3408">
</g>
<g
   id="g3410">
</g>
<g
   id="g3412">
</g>
<g
   id="g3414">
</g>
<g
   id="g3416">
</g>
<g
   id="g3418">
</g>
<g
   id="g3420">
</g>
<g
   id="g3422">
</g>
<g
   id="g3424">
</g>
</svg>