<?xml version="1.0" encoding="UTF-8" standalone="no"?>
<!-- Generator: Adobe Illustrator 19.0.0, SVG Export Plug-In . SVG Version: 6.00 Build 0)  -->

<svg
   xmlns:dc="http://purl.org/dc/elements/1.1/"
   xmlns:cc="http://creativecommons.org/ns#"
   xmlns:rdf="http://www.w3.org/1999/02/22-rdf-syntax-ns#"
   xmlns:svg="http://www.w3.org/2000/svg"
   xmlns="http://www.w3.org/2000/svg"
   xmlns:sodipodi="http://sodipodi.sourceforge.net/DTD/sodipodi-0.dtd"
   xmlns:inkscape="http://www.inkscape.org/namespaces/inkscape"
   version="1.1"
   id="Layer_1"
   x="0px"
   y="0px"
   viewBox="0 0 512 512"
   style="enable-background:new 0 0 512 512;"
   xml:space="preserve"
   width="512px"
   height="512px"
   inkscape:version="0.91 r13725"
   sodipodi:docname="chart.svg"><metadata
   id="metadata3383"><rdf:RDF><cc:Work
       rdf:about=""><dc:format>image/svg+xml</dc:format><dc:type
         rdf:resource="http://purl.org/dc/dcmitype/StillImage" /></cc:Work></rdf:RDF></metadata><defs
   id="defs3381" /><sodipodi:namedview
   pagecolor="#ffffff"
   bordercolor="#666666"
   borderopacity="1"
   objecttolerance="10"
   gridtolerance="10"
   guidetolerance="10"
   inkscape:pageopacity="0"
   inkscape:pageshadow="2"
   inkscape:window-width="1337"
   inkscape:window-height="1080"
   id="namedview3379"
   showgrid="false"
   inkscape:zoom="1.2274139"
   inkscape:cx="256"
   inkscape:cy="203.76467"
   inkscape:window-x="3029"
   inkscape:window-y="159"
   inkscape:window-maximized="0"
   inkscape:current-layer="Layer_1" />
<g
   id="g3337"
   transform="matrix(0.82496227,0,0,0.82603743,44.809659,44.534418)">
	<g
   id="g3339">
		<path
   d="m 499.904,456.607 -487.808,0 C 5.415,456.607 0,462.022 0,468.703 c 0,6.679 5.415,12.096 12.096,12.096 l 487.808,0 c 6.679,0 12.096,-5.417 12.096,-12.096 0,-6.68 -5.415,-12.096 -12.096,-12.096 z"
   id="path3341"
   inkscape:connector-curvature="0"
   style="fill:#ffffff" />
	</g>
</g>
<g
   id="g3343"
   transform="matrix(0.82496227,0,0,0.82603743,44.809659,44.534418)">
	<g
   id="g3345">
		<path
   d="m 468.37,88.305 -84.948,0 c -6.679,0 -12.096,5.417 -12.096,12.096 l 0,82.24 -60.757,0 0,-139.344 c 0,-6.679 -5.417,-12.096 -12.096,-12.096 l -84.95,0 c -6.679,0 -12.096,5.417 -12.096,12.096 l 0,228.882 -60.757,0 0,-102.819 c 0,-6.681 -5.417,-12.096 -12.096,-12.096 l -84.948,0 c -6.681,0 -12.096,5.415 -12.096,12.096 l 0,231.563 c 0,6.681 5.417,12.096 12.096,12.096 l 84.948,0 84.948,0 84.95,0 84.949,0 84.948,0 c 6.681,0 12.096,-5.417 12.096,-12.096 l 0,-300.522 c 0.001,-6.679 -5.414,-12.096 -12.095,-12.096 z m -351.891,300.522 -60.757,0 0,-207.371 60.757,0 0,207.371 z m 84.95,0 -60.757,0 0,-92.456 60.757,0 0,92.456 z m 84.949,-194.09 0,194.09 -60.758,0 0,-333.434 60.758,0 0,139.344 z m 84.95,194.09 -60.757,0 0,-181.994 60.757,0 0,181.994 z m 84.948,0 -60.756,0 0,-194.09 0,-82.24 60.757,0 0,276.33 z"
   id="path3347"
   inkscape:connector-curvature="0"
   style="fill:#ffffff" />
	</g>
</g>
<g
   id="g3349">
</g>
<g
   id="g3351">
</g>
<g
   id="g3353">
</g>
<g
   id="g3355">
</g>
<g
   id="g3357">
</g>
<g
   id="g3359">
</g>
<g
   id="g3361">
</g>
<g
   id="g3363">
</g>
<g
   id="g3365">
</g>
<g
   id="g3367">
</g>
<g
   id="g3369">
</g>
<g
   id="g3371">
</g>
<g
   id="g3373">
</g>
<g
   id="g3375">
</g>
<g
   id="g3377">
</g>
</svg>