<?xml version="1.0" encoding="UTF-8" standalone="no"?>
<!-- Generator: Adobe Illustrator 16.0.0, SVG Export Plug-In . SVG Version: 6.00 Build 0)  -->

<svg
   xmlns:dc="http://purl.org/dc/elements/1.1/"
   xmlns:cc="http://creativecommons.org/ns#"
   xmlns:rdf="http://www.w3.org/1999/02/22-rdf-syntax-ns#"
   xmlns:svg="http://www.w3.org/2000/svg"
   xmlns="http://www.w3.org/2000/svg"
   xmlns:sodipodi="http://sodipodi.sourceforge.net/DTD/sodipodi-0.dtd"
   xmlns:inkscape="http://www.inkscape.org/namespaces/inkscape"
   version="1.1"
   id="Capa_1"
   x="0px"
   y="0px"
   width="512px"
   height="512px"
   viewBox="0 0 90 90"
   style="enable-background:new 0 0 90 90;"
   xml:space="preserve"
   inkscape:version="0.91 r13725"
   sodipodi:docname="facebook.svg"><metadata
   id="metadata3374"><rdf:RDF><cc:Work
       rdf:about=""><dc:format>image/svg+xml</dc:format><dc:type
         rdf:resource="http://purl.org/dc/dcmitype/StillImage" /></cc:Work></rdf:RDF></metadata><defs
   id="defs3372" /><sodipodi:namedview
   pagecolor="#ffffff"
   bordercolor="#666666"
   borderopacity="1"
   objecttolerance="10"
   gridtolerance="10"
   guidetolerance="10"
   inkscape:pageopacity="0"
   inkscape:pageshadow="2"
   inkscape:window-width="763"
   inkscape:window-height="593"
   id="namedview3370"
   showgrid="false"
   inkscape:zoom="0.81640625"
   inkscape:cx="256"
   inkscape:cy="256"
   inkscape:window-x="1626"
   inkscape:window-y="110"
   inkscape:window-maximized="0"
   inkscape:current-layer="Capa_1" />
<g
   id="g3337"
   transform="matrix(0.73684211,0,0,0.73684211,12.509908,12.079285)">
	<path
   id="Facebook__x28_alt_x29_"
   d="M 90,15.001 C 90,7.119 82.884,0 75,0 L 15,0 C 7.116,0 0,7.119 0,15.001 L 0,74.999 C 0,82.881 7.116,90 15.001,90 L 45,90 45,56 34,56 34,41 45,41 45,35.156 C 45,25.077 52.568,16 61.875,16 L 74,16 74,31 61.875,31 C 60.548,31 59,32.611 59,35.024 l 0,5.976 15,0 0,15 -15,0 0,34 16,0 c 7.884,0 15,-7.119 15,-15.001 l 0,-59.998 z"
   inkscape:connector-curvature="0"
   style="fill:#ffffff" />
</g>
<g
   id="g3340">
</g>
<g
   id="g3342">
</g>
<g
   id="g3344">
</g>
<g
   id="g3346">
</g>
<g
   id="g3348">
</g>
<g
   id="g3350">
</g>
<g
   id="g3352">
</g>
<g
   id="g3354">
</g>
<g
   id="g3356">
</g>
<g
   id="g3358">
</g>
<g
   id="g3360">
</g>
<g
   id="g3362">
</g>
<g
   id="g3364">
</g>
<g
   id="g3366">
</g>
<g
   id="g3368">
</g>
</svg>