<?xml version="1.0" encoding="UTF-8" standalone="no"?>
<!-- Generator: Adobe Illustrator 19.0.0, SVG Export Plug-In . SVG Version: 6.00 Build 0)  -->

<svg
   xmlns:dc="http://purl.org/dc/elements/1.1/"
   xmlns:cc="http://creativecommons.org/ns#"
   xmlns:rdf="http://www.w3.org/1999/02/22-rdf-syntax-ns#"
   xmlns:svg="http://www.w3.org/2000/svg"
   xmlns="http://www.w3.org/2000/svg"
   xmlns:sodipodi="http://sodipodi.sourceforge.net/DTD/sodipodi-0.dtd"
   xmlns:inkscape="http://www.inkscape.org/namespaces/inkscape"
   version="1.1"
   id="Capa_1"
   x="0px"
   y="0px"
   viewBox="0 0 60 60"
   style="enable-background:new 0 0 60 60;"
   xml:space="preserve"
   width="512px"
   height="512px"
   inkscape:version="0.91 r13725"
   sodipodi:docname="file.svg"><metadata
   id="metadata3373"><rdf:RDF><cc:Work
       rdf:about=""><dc:format>image/svg+xml</dc:format><dc:type
         rdf:resource="http://purl.org/dc/dcmitype/StillImage" /></cc:Work></rdf:RDF></metadata><defs
   id="defs3371" /><sodipodi:namedview
   pagecolor="#ffffff"
   bordercolor="#666666"
   borderopacity="1"
   objecttolerance="10"
   gridtolerance="10"
   guidetolerance="10"
   inkscape:pageopacity="0"
   inkscape:pageshadow="2"
   inkscape:window-width="1404"
   inkscape:window-height="1001"
   id="namedview3369"
   showgrid="false"
   inkscape:zoom="1.5841327"
   inkscape:cx="256"
   inkscape:cy="256"
   inkscape:window-x="3117"
   inkscape:window-y="239"
   inkscape:window-maximized="0"
   inkscape:current-layer="Capa_1" />
<path
   d="m 36.216635,7.915412 -23.94159,0 0,44.317128 34.715084,0 0,-33.543634 L 36.216635,7.915412 Z m -15.816783,10.340663 7.386188,0 c 0.407718,0 0.738619,0.330163 0.738619,0.738619 0,0.408456 -0.330901,0.738619 -0.738619,0.738619 l -7.386188,0 c -0.407718,0 -0.738619,-0.330163 -0.738619,-0.738619 0,-0.408456 0.330901,-0.738619 0.738619,-0.738619 z m 18.46547,25.113039 -18.46547,0 c -0.407718,0 -0.738619,-0.330162 -0.738619,-0.738618 0,-0.408457 0.330901,-0.738619 0.738619,-0.738619 l 18.46547,0 c 0.407718,0 0.738619,0.330162 0.738619,0.738619 0,0.408456 -0.330901,0.738618 -0.738619,0.738618 z m 0,-5.90895 -18.46547,0 c -0.407718,0 -0.738619,-0.330163 -0.738619,-0.738619 0,-0.408456 0.330901,-0.738619 0.738619,-0.738619 l 18.46547,0 c 0.407718,0 0.738619,0.330163 0.738619,0.738619 0,0.408456 -0.330901,0.738619 -0.738619,0.738619 z m 0,-5.908951 -18.46547,0 c -0.407718,0 -0.738619,-0.330162 -0.738619,-0.738618 0,-0.408457 0.330901,-0.738619 0.738619,-0.738619 l 18.46547,0 c 0.407718,0 0.738619,0.330162 0.738619,0.738619 0,0.408456 -0.330901,0.738618 -0.738619,0.738618 z m 0,-5.90895 -18.46547,0 c -0.407718,0 -0.738619,-0.330163 -0.738619,-0.738619 0,-0.408456 0.330901,-0.738619 0.738619,-0.738619 l 18.46547,0 c 0.407718,0 0.738619,0.330163 0.738619,0.738619 0,0.408456 -0.330901,0.738619 -0.738619,0.738619 z m -3.693094,-5.90895 0,-10.340664 10.340663,10.340664 -10.340663,0 z"
   id="path3337"
   inkscape:connector-curvature="0"
   style="fill:#ffffff" />
<g
   id="g3339">
</g>
<g
   id="g3341">
</g>
<g
   id="g3343">
</g>
<g
   id="g3345">
</g>
<g
   id="g3347">
</g>
<g
   id="g3349">
</g>
<g
   id="g3351">
</g>
<g
   id="g3353">
</g>
<g
   id="g3355">
</g>
<g
   id="g3357">
</g>
<g
   id="g3359">
</g>
<g
   id="g3361">
</g>
<g
   id="g3363">
</g>
<g
   id="g3365">
</g>
<g
   id="g3367">
</g>
</svg>