<?xml version="1.0" encoding="UTF-8" standalone="no"?>
<!-- Generator: Adobe Illustrator 19.0.0, SVG Export Plug-In . SVG Version: 6.00 Build 0)  -->

<svg
   xmlns:dc="http://purl.org/dc/elements/1.1/"
   xmlns:cc="http://creativecommons.org/ns#"
   xmlns:rdf="http://www.w3.org/1999/02/22-rdf-syntax-ns#"
   xmlns:svg="http://www.w3.org/2000/svg"
   xmlns="http://www.w3.org/2000/svg"
   xmlns:sodipodi="http://sodipodi.sourceforge.net/DTD/sodipodi-0.dtd"
   xmlns:inkscape="http://www.inkscape.org/namespaces/inkscape"
   version="1.1"
   id="Layer_1"
   x="0px"
   y="0px"
   viewBox="0 0 300 300"
   style="enable-background:new 0 0 300 300;"
   xml:space="preserve"
   width="512px"
   height="512px"
   inkscape:version="0.91 r13725"
   sodipodi:docname="socketio.svg"><metadata
   id="metadata3420"><rdf:RDF><cc:Work
       rdf:about=""><dc:format>image/svg+xml</dc:format><dc:type
         rdf:resource="http://purl.org/dc/dcmitype/StillImage" /></cc:Work></rdf:RDF></metadata><defs
   id="defs3418" /><sodipodi:namedview
   pagecolor="#ffffff"
   bordercolor="#666666"
   borderopacity="1"
   objecttolerance="10"
   gridtolerance="10"
   guidetolerance="10"
   inkscape:pageopacity="0"
   inkscape:pageshadow="2"
   inkscape:window-width="640"
   inkscape:window-height="480"
   id="namedview3416"
   showgrid="false"
   inkscape:zoom="0.54736328"
   inkscape:cx="256"
   inkscape:cy="256"
   inkscape:window-x="3255"
   inkscape:window-y="501"
   inkscape:window-maximized="0"
   inkscape:current-layer="Layer_1" />
<g
   id="g3376"
   transform="matrix(0.68242429,0,0,0.68242429,49.242066,49.242384)">
	<g
   id="g3378">
		<g
   id="g3380">
			<path
   d="m 149.999,74.97 c -41.191,0 -74.703,33.509 -74.703,74.7 0,41.194 33.512,74.706 74.703,74.706 41.191,0 74.703,-33.512 74.703,-74.706 0,-41.188 -33.512,-74.7 -74.703,-74.7 z m -41.272,115.967 21.2,-50.414 29.222,29.214 -50.422,21.2 z m 61.39,-32.238 -29.155,-29.147 50.303,-21.148 -21.148,50.295 z"
   id="path3382"
   inkscape:connector-curvature="0"
   style="fill:#ffffff" />
			<path
   d="M 149.996,0 C 67.157,0 0.001,67.161 0.001,149.997 0.001,232.833 67.157,300 149.996,300 232.835,300 299.999,232.837 299.999,149.997 299.999,67.157 232.835,0 149.996,0 Z m 0.003,239.938 c -49.771,0 -90.265,-40.494 -90.265,-90.267 0,-49.771 40.491,-90.262 90.265,-90.262 49.774,0 90.265,40.491 90.265,90.262 0,49.771 -40.494,90.267 -90.265,90.267 z"
   id="path3384"
   inkscape:connector-curvature="0"
   style="fill:#ffffff" />
		</g>
	</g>
</g>
<g
   id="g3386">
</g>
<g
   id="g3388">
</g>
<g
   id="g3390">
</g>
<g
   id="g3392">
</g>
<g
   id="g3394">
</g>
<g
   id="g3396">
</g>
<g
   id="g3398">
</g>
<g
   id="g3400">
</g>
<g
   id="g3402">
</g>
<g
   id="g3404">
</g>
<g
   id="g3406">
</g>
<g
   id="g3408">
</g>
<g
   id="g3410">
</g>
<g
   id="g3412">
</g>
<g
   id="g3414">
</g>
</svg>