<?xml version="1.0" encoding="iso-8859-1"?>
<!-- Generator: Adobe Illustrator 19.0.0, SVG Export Plug-In . SVG Version: 6.00 Build 0)  -->
<svg xmlns="http://www.w3.org/2000/svg" xmlns:xlink="http://www.w3.org/1999/xlink" version="1.1" id="Layer_1" x="0px" y="0px" viewBox="0 0 512 512" style="enable-background:new 0 0 512 512;" xml:space="preserve" width="512px" height="512px">
<g>
	<g>
		<rect x="56.195" y="462.049" width="399.61" height="49.951" fill="#FFFFFF"/>
	</g>
</g>
<g>
	<g>
		<polygon points="362.146,18.732 362.146,93.659 437.073,93.659   " fill="#FFFFFF"/>
	</g>
</g>
<g>
	<g>
		<polygon points="324.683,131.122 324.683,0 56.195,0 56.195,187.317 455.805,187.317 455.805,131.122   " fill="#FFFFFF"/>
	</g>
</g>
<g>
	<g>
		<path d="M56.195,224.781v199.805h399.61V224.781H56.195z M239.426,362.146h-0.001H224.14v-7.867    c-6.069,5.62-13.076,8.429-21.017,8.429c-21.957,0-38.325-18.045-38.325-41.024c0-23.227,18.476-39.897,39.786-39.897    c15.698,0,26.338,6.953,31.92,17.419l-13.712,10.34c-4.318-7.811-11.187-11.351-18.882-11.351    c-11.349,0-20.455,10.096-20.455,24.165c0,13.404,8.638,23.939,21.24,23.939c7.195,0,13.674-3.334,19.445-10.004v-2.471H208.63    v-13.376h30.796V362.146z M275.613,362.146h-18.432v-79.797h18.432V362.146z M350.689,298.535h-35.74v17.196h29.446v14.948    h-29.446v31.468h-18.432v-79.797h54.172V298.535z" fill="#FFFFFF"/>
	</g>
</g>
<g>
</g>
<g>
</g>
<g>
</g>
<g>
</g>
<g>
</g>
<g>
</g>
<g>
</g>
<g>
</g>
<g>
</g>
<g>
</g>
<g>
</g>
<g>
</g>
<g>
</g>
<g>
</g>
<g>
</g>
</svg>
