<?xml version="1.0" encoding="UTF-8" standalone="no"?>
<!-- Generator: Adobe Illustrator 18.0.0, SVG Export Plug-In . SVG Version: 6.00 Build 0)  -->

<svg
   xmlns:dc="http://purl.org/dc/elements/1.1/"
   xmlns:cc="http://creativecommons.org/ns#"
   xmlns:rdf="http://www.w3.org/1999/02/22-rdf-syntax-ns#"
   xmlns:svg="http://www.w3.org/2000/svg"
   xmlns="http://www.w3.org/2000/svg"
   xmlns:sodipodi="http://sodipodi.sourceforge.net/DTD/sodipodi-0.dtd"
   xmlns:inkscape="http://www.inkscape.org/namespaces/inkscape"
   version="1.1"
   id="Capa_1"
   x="0px"
   y="0px"
   viewBox="0 0 462.866 462.866"
   style="enable-background:new 0 0 462.866 462.866;"
   xml:space="preserve"
   width="512px"
   height="512px"
   inkscape:version="0.91 r13725"
   sodipodi:docname="microsoft.svg"><metadata
   id="metadata3396"><rdf:RDF><cc:Work
       rdf:about=""><dc:format>image/svg+xml</dc:format><dc:type
         rdf:resource="http://purl.org/dc/dcmitype/StillImage" /></cc:Work></rdf:RDF></metadata><defs
   id="defs3394" /><sodipodi:namedview
   pagecolor="#ffffff"
   bordercolor="#666666"
   borderopacity="1"
   objecttolerance="10"
   gridtolerance="10"
   guidetolerance="10"
   inkscape:pageopacity="0"
   inkscape:pageshadow="2"
   inkscape:window-width="1405"
   inkscape:window-height="925"
   id="namedview3392"
   showgrid="false"
   inkscape:zoom="1.0169613"
   inkscape:cx="307.0291"
   inkscape:cy="221.49066"
   inkscape:window-x="3323"
   inkscape:window-y="169"
   inkscape:window-maximized="0"
   inkscape:current-layer="Capa_1" />
<g
   id="windows"
   transform="matrix(0.66966612,0,0,0.67277025,76.450324,75.731606)">
	<g
   id="g3338">
		<g
   id="g3340">
			<path
   d="m 440.982,221.555 c 11.659,0 21.885,-10.054 21.885,-21.72 l 0,-180.971 c 0,-11.643 -9.789,-19.796 -21.322,-18.127 l -213.882,31.29 c -11.534,1.699 -20.17,12.625 -20.17,24.253 l 0,143.555 c 0,11.666 7.638,21.72 19.267,21.72 l 214.222,0 z"
   id="path3342"
   inkscape:connector-curvature="0"
   style="fill:#ffffff" />
		</g>
	</g>
	<g
   id="g3344">
		<g
   id="g3346">
			<path
   d="m 191.532,58.945 c 0,-11.675 -11.443,-19.842 -22.977,-18.143 L 22.539,61.829 C 11.037,63.528 0,74.454 0,86.105 l 0,113.73 c 0,11.666 10.725,21.72 22.384,21.72 l 143.927,0 c 11.66,0 25.222,-10.054 25.222,-21.72 l 0,-140.89 z"
   id="path3348"
   inkscape:connector-curvature="0"
   style="fill:#ffffff" />
		</g>
	</g>
	<g
   id="g3350">
		<g
   id="g3352">
			<path
   d="M 22.384,237.516 C 10.725,237.516 0,248.66 0,260.334 l 0,115.67 c 0,11.667 10.038,22.609 21.543,24.308 l 146.701,21.339 c 11.534,1.684 23.288,-6.469 23.288,-18.143 l 0,-143.174 c 0,-11.674 -13.561,-22.818 -25.222,-22.818 l -143.926,0 z"
   id="path3354"
   inkscape:connector-curvature="0"
   style="fill:#ffffff" />
		</g>
	</g>
	<g
   id="g3356">
		<g
   id="g3358">
			<path
   d="m 207.492,406.187 c 0,11.645 8.479,22.57 20.014,24.268 l 214.535,31.666 c 11.503,1.698 20.825,-6.454 20.825,-18.082 l 0,-183.705 c 0,-11.674 -10.226,-22.818 -21.885,-22.818 l -214.222,0 c -11.629,0 -19.267,11.145 -19.267,22.818 l 0,145.853 z"
   id="path3360"
   inkscape:connector-curvature="0"
   style="fill:#ffffff" />
		</g>
	</g>
</g>
<g
   id="g3362">
</g>
<g
   id="g3364">
</g>
<g
   id="g3366">
</g>
<g
   id="g3368">
</g>
<g
   id="g3370">
</g>
<g
   id="g3372">
</g>
<g
   id="g3374">
</g>
<g
   id="g3376">
</g>
<g
   id="g3378">
</g>
<g
   id="g3380">
</g>
<g
   id="g3382">
</g>
<g
   id="g3384">
</g>
<g
   id="g3386">
</g>
<g
   id="g3388">
</g>
<g
   id="g3390">
</g>
</svg>