<?xml version="1.0" encoding="UTF-8" standalone="no"?>
<!-- Generator: Adobe Illustrator 16.0.0, SVG Export Plug-In . SVG Version: 6.00 Build 0)  -->

<svg
   xmlns:dc="http://purl.org/dc/elements/1.1/"
   xmlns:cc="http://creativecommons.org/ns#"
   xmlns:rdf="http://www.w3.org/1999/02/22-rdf-syntax-ns#"
   xmlns:svg="http://www.w3.org/2000/svg"
   xmlns="http://www.w3.org/2000/svg"
   xmlns:sodipodi="http://sodipodi.sourceforge.net/DTD/sodipodi-0.dtd"
   xmlns:inkscape="http://www.inkscape.org/namespaces/inkscape"
   version="1.1"
   id="Capa_1"
   x="0px"
   y="0px"
   width="512px"
   height="512px"
   viewBox="0 0 511.626 511.627"
   style="enable-background:new 0 0 511.626 511.627;"
   xml:space="preserve"
   inkscape:version="0.91 r13725"
   sodipodi:docname="blink.svg"><metadata
   id="metadata3379"><rdf:RDF><cc:Work
       rdf:about=""><dc:format>image/svg+xml</dc:format><dc:type
         rdf:resource="http://purl.org/dc/dcmitype/StillImage" /></cc:Work></rdf:RDF></metadata><defs
   id="defs3377" /><sodipodi:namedview
   pagecolor="#ffffff"
   bordercolor="#666666"
   borderopacity="1"
   objecttolerance="10"
   gridtolerance="10"
   guidetolerance="10"
   inkscape:pageopacity="0"
   inkscape:pageshadow="2"
   inkscape:window-width="1326"
   inkscape:window-height="976"
   id="namedview3375"
   showgrid="false"
   inkscape:zoom="1.5188547"
   inkscape:cx="256"
   inkscape:cy="256"
   inkscape:window-x="3216"
   inkscape:window-y="322"
   inkscape:window-maximized="0"
   inkscape:current-layer="Capa_1" />
<g
   id="g3337"
   transform="matrix(0.78653735,0,0,0.78653735,53.2908,49.906667)">
	<g
   id="g3339">
		<path
   d="M 500.922,47.248 C 493.786,40.115 485.173,36.542 475.084,36.542 l -438.537,0 c -10.09,0 -18.704,3.576 -25.841,10.706 C 3.571,54.387 0,63 0,73.089 l 0,365.447 c 0,10.089 3.567,18.699 10.706,25.838 7.141,7.139 15.75,10.711 25.841,10.711 l 438.531,0 c 10.092,0 18.706,-3.572 25.845,-10.711 7.132,-7.139 10.704,-15.749 10.704,-25.838 l 0,-365.447 C 511.626,63.004 508.054,54.391 500.922,47.248 Z m -427.833,7.566 109.636,0 0,36.546 -109.636,0 0,-36.546 z m 401.995,383.722 -438.537,0 0,-36.545 438.538,0 0,36.545 -10e-4,0 z M 146.177,274.656 c 0,-30.263 10.71,-56.103 32.121,-77.516 21.416,-21.411 47.251,-32.117 77.515,-32.117 30.266,0 56.104,10.707 77.516,32.117 21.412,21.413 32.117,47.253 32.117,77.516 0,30.266 -10.705,56.103 -32.117,77.515 -21.412,21.413 -47.25,32.121 -77.516,32.121 -30.264,0 -56.099,-10.708 -77.515,-32.121 -21.414,-21.412 -32.121,-47.249 -32.121,-77.515 z m 328.907,-162.164 0,33.686 -438.537,0 0,-36.542 183.869,0 18.271,-36.543 236.397,0 0,39.399 0,0 z"
   id="path3341"
   inkscape:connector-curvature="0"
   style="fill:#ffffff" />
		<path
   d="m 307.488,326.334 c 14.277,-14.277 21.416,-31.501 21.416,-51.678 0,-20.174 -7.139,-37.401 -21.416,-51.675 -14.273,-14.275 -31.497,-21.414 -51.675,-21.414 -20.177,0 -37.4,7.139 -51.678,21.414 -14.272,14.274 -21.411,31.501 -21.411,51.675 0,20.177 7.135,37.4 21.411,51.678 14.277,14.274 31.504,21.412 51.678,21.412 20.178,0 37.401,-7.138 51.675,-21.412 z M 236.396,254.67 c -5.33,5.332 -7.993,11.803 -7.993,19.415 0,2.665 -0.855,4.855 -2.57,6.566 -1.713,1.715 -3.899,2.566 -6.567,2.566 -2.666,0 -4.853,-0.852 -6.567,-2.566 -1.713,-1.711 -2.568,-3.901 -2.568,-6.566 0,-12.563 4.473,-23.314 13.418,-32.261 8.947,-8.945 19.701,-13.417 32.264,-13.417 2.663,0 4.853,0.854 6.567,2.568 1.715,1.709 2.57,3.899 2.57,6.563 0,2.666 -0.855,4.856 -2.574,6.571 -1.714,1.713 -3.904,2.568 -6.566,2.568 -7.614,0.001 -14.084,2.664 -19.414,7.993 z"
   id="path3343"
   inkscape:connector-curvature="0"
   style="fill:#ffffff" />
	</g>
</g>
<g
   id="g3345">
</g>
<g
   id="g3347">
</g>
<g
   id="g3349">
</g>
<g
   id="g3351">
</g>
<g
   id="g3353">
</g>
<g
   id="g3355">
</g>
<g
   id="g3357">
</g>
<g
   id="g3359">
</g>
<g
   id="g3361">
</g>
<g
   id="g3363">
</g>
<g
   id="g3365">
</g>
<g
   id="g3367">
</g>
<g
   id="g3369">
</g>
<g
   id="g3371">
</g>
<g
   id="g3373">
</g>
</svg>