<?xml version="1.0" encoding="UTF-8" standalone="no"?>
<!-- Generator: Adobe Illustrator 19.0.0, SVG Export Plug-In . SVG Version: 6.00 Build 0)  -->

<svg
   xmlns:dc="http://purl.org/dc/elements/1.1/"
   xmlns:cc="http://creativecommons.org/ns#"
   xmlns:rdf="http://www.w3.org/1999/02/22-rdf-syntax-ns#"
   xmlns:svg="http://www.w3.org/2000/svg"
   xmlns="http://www.w3.org/2000/svg"
   xmlns:sodipodi="http://sodipodi.sourceforge.net/DTD/sodipodi-0.dtd"
   xmlns:inkscape="http://www.inkscape.org/namespaces/inkscape"
   version="1.1"
   id="Capa_1"
   x="0px"
   y="0px"
   viewBox="0 0 58.201 58.201"
   style="enable-background:new 0 0 58.201 58.201;"
   xml:space="preserve"
   width="512px"
   height="512px"
   inkscape:version="0.91 r13725"
   sodipodi:docname="db.svg"><metadata
   id="metadata3381"><rdf:RDF><cc:Work
       rdf:about=""><dc:format>image/svg+xml</dc:format><dc:type
         rdf:resource="http://purl.org/dc/dcmitype/StillImage" /></cc:Work></rdf:RDF></metadata><defs
   id="defs3379" /><sodipodi:namedview
   pagecolor="#ffffff"
   bordercolor="#666666"
   borderopacity="1"
   objecttolerance="10"
   gridtolerance="10"
   guidetolerance="10"
   inkscape:pageopacity="0"
   inkscape:pageshadow="2"
   inkscape:window-width="1244"
   inkscape:window-height="894"
   id="namedview3377"
   showgrid="false"
   inkscape:zoom="1.1628592"
   inkscape:cx="265.31931"
   inkscape:cy="263.19565"
   inkscape:window-x="3309"
   inkscape:window-y="141"
   inkscape:window-maximized="0"
   inkscape:current-layer="Capa_1" />
<g
   id="g3337"
   transform="matrix(0.74282766,0,0,0.74282766,7.5142921,7.2829355)">
	<path
   d="m 31.707,33.07 c -0.87,0.027 -1.74,0.042 -2.606,0.042 -0.869,0 -1.742,-0.014 -2.614,-0.042 C 19.146,32.869 13.296,31.832 9.084,30.353 7.104,29.685 5.409,28.899 4.1,28 l 0,7.111 0,0.5 0,0.5 0,1.289 c 2.846,2.971 12.394,5.711 25,5.711 12.606,0 22.154,-2.74 25,-5.711 l 0,-1.289 0,-0.5 0,-0.5 0,-7.111 c -1.318,0.905 -3.028,1.697 -5.025,2.367 -4.21,1.472 -10.048,2.503 -17.368,2.703 z"
   id="path3339"
   inkscape:connector-curvature="0"
   style="fill:#ffffff" />
	<path
   d="m 4.1,14.889 0,7.111 0,0.5 0,0.5 0,1.289 c 2.638,2.754 11.033,5.31 22.286,5.668 0.115,0.004 0.233,0.005 0.349,0.008 0.326,0.009 0.651,0.018 0.982,0.023 0.457,0.008 0.918,0.012 1.383,0.012 0.465,0 0.926,-0.004 1.383,-0.011 0.33,-0.005 0.656,-0.014 0.982,-0.023 0.116,-0.003 0.234,-0.005 0.349,-0.008 C 43.067,29.599 51.462,27.043 54.1,24.29 l 0,-1.29 0,-0.5 0,-0.5 0,-7.111 C 49.233,18.232 38.944,20 29.1,20 19.256,20 8.968,18.232 4.1,14.889 Z"
   id="path3341"
   inkscape:connector-curvature="0"
   style="fill:#ffffff" />
	<path
   d="M 53.965,8.542 C 52.843,4.241 44.215,0 29.1,0 14.023,0 5.404,4.22 4.247,8.51 4.162,8.657 4.1,8.818 4.1,9 l 0,0.5 0,1.806 C 6.937,14.267 16.417,17 29.1,17 c 12.683,0 22.164,-2.733 25,-5.694 l 0,-1.806 0,-0.5 c 0,-0.168 -0.056,-0.319 -0.135,-0.458 z"
   id="path3343"
   inkscape:connector-curvature="0"
   style="fill:#ffffff" />
	<path
   d="m 4.1,41 0,8.201 c 0,0.162 0.043,0.315 0.117,0.451 1.181,4.895 11.747,8.549 24.883,8.549 13.106,0 23.655,-3.639 24.875,-8.516 0.08,-0.144 0.125,-0.309 0.125,-0.484 l 0,-8.199 c -4.135,2.911 -12.655,5.199 -25,5.199 -12.346,0 -20.866,-2.29 -25,-5.201 z"
   id="path3345"
   inkscape:connector-curvature="0"
   style="fill:#ffffff" />
</g>
<g
   id="g3347">
</g>
<g
   id="g3349">
</g>
<g
   id="g3351">
</g>
<g
   id="g3353">
</g>
<g
   id="g3355">
</g>
<g
   id="g3357">
</g>
<g
   id="g3359">
</g>
<g
   id="g3361">
</g>
<g
   id="g3363">
</g>
<g
   id="g3365">
</g>
<g
   id="g3367">
</g>
<g
   id="g3369">
</g>
<g
   id="g3371">
</g>
<g
   id="g3373">
</g>
<g
   id="g3375">
</g>
</svg>