<?xml version="1.0" encoding="UTF-8" standalone="no"?>
<!-- Generator: Adobe Illustrator 16.0.0, SVG Export Plug-In . SVG Version: 6.00 Build 0)  -->

<svg
   xmlns:dc="http://purl.org/dc/elements/1.1/"
   xmlns:cc="http://creativecommons.org/ns#"
   xmlns:rdf="http://www.w3.org/1999/02/22-rdf-syntax-ns#"
   xmlns:svg="http://www.w3.org/2000/svg"
   xmlns="http://www.w3.org/2000/svg"
   xmlns:sodipodi="http://sodipodi.sourceforge.net/DTD/sodipodi-0.dtd"
   xmlns:inkscape="http://www.inkscape.org/namespaces/inkscape"
   version="1.1"
   id="Capa_1"
   x="0px"
   y="0px"
   width="512px"
   height="512px"
   viewBox="0 0 464.1 464.099"
   style="enable-background:new 0 0 464.1 464.099;"
   xml:space="preserve"
   inkscape:version="0.91 r13725"
   sodipodi:docname="random.svg"><metadata
   id="metadata3376"><rdf:RDF><cc:Work
       rdf:about=""><dc:format>image/svg+xml</dc:format><dc:type
         rdf:resource="http://purl.org/dc/dcmitype/StillImage" /></cc:Work></rdf:RDF></metadata><defs
   id="defs3374" /><sodipodi:namedview
   pagecolor="#ffffff"
   bordercolor="#666666"
   borderopacity="1"
   objecttolerance="10"
   gridtolerance="10"
   guidetolerance="10"
   inkscape:pageopacity="0"
   inkscape:pageshadow="2"
   inkscape:window-width="1295"
   inkscape:window-height="917"
   id="namedview3372"
   showgrid="false"
   inkscape:zoom="1.4082031"
   inkscape:cx="256"
   inkscape:cy="256"
   inkscape:window-x="3172"
   inkscape:window-y="246"
   inkscape:window-maximized="0"
   inkscape:current-layer="Capa_1" />
<g
   id="g3337"
   transform="matrix(0.82720434,0,0,0.82720434,38.998178,38.197984)">
	<g
   id="gesture">
		<path
   d="m 45.9,100.725 c 17.85,-17.85 35.7,-35.7 43.35,-30.6 12.75,5.1 0,25.5 -7.65,38.25 -7.65,10.2 -73.95,99.45 -73.95,160.65 0,33.15 12.75,58.65 33.15,76.5 20.4,15.3 43.35,17.85 66.3,12.75 28.05,-7.65 48.45,-35.7 79.05,-71.4 30.6,-38.25 71.401,-86.7 104.549,-86.7 40.801,0 40.801,25.5 45.9,45.9 -96.9,15.3 -137.7,94.351 -137.7,137.7 0,43.349 35.7,79.05 81.6,79.05 40.801,0 109.65,-33.149 119.85,-155.55 l 63.75,0 0,-63.75 -63.75,0 c -5.1,-40.8 -28.049,-107.1 -102,-107.1 -56.1,0 -107.1,48.45 -124.95,71.4 -15.3,17.85 -53.55,63.75 -58.65,68.851 -7.65,7.649 -17.85,20.399 -28.05,20.399 -10.2,0 -17.85,-20.399 -10.2,-48.45 10.2,-28.05 35.7,-73.95 48.45,-89.25 17.85,-30.6 30.6,-51 30.6,-84.15 0,-56.1 -40.8,-73.95 -63.75,-73.95 -33.15,0 -61.2,25.5 -68.85,33.15 C 15.299,42.075 7.65,49.725 0,57.375 l 45.9,43.35 z m 237.151,298.35 c -7.65,0 -17.852,-7.649 -17.852,-17.85 0,-15.3 17.852,-56.101 73.951,-71.4 -10.201,68.85 -38.25,89.25 -56.099,89.25 z"
   id="path3340"
   inkscape:connector-curvature="0"
   style="fill:#ffffff" />
	</g>
</g>
<g
   id="g3342">
</g>
<g
   id="g3344">
</g>
<g
   id="g3346">
</g>
<g
   id="g3348">
</g>
<g
   id="g3350">
</g>
<g
   id="g3352">
</g>
<g
   id="g3354">
</g>
<g
   id="g3356">
</g>
<g
   id="g3358">
</g>
<g
   id="g3360">
</g>
<g
   id="g3362">
</g>
<g
   id="g3364">
</g>
<g
   id="g3366">
</g>
<g
   id="g3368">
</g>
<g
   id="g3370">
</g>
</svg>