<?xml version="1.0" encoding="UTF-8" standalone="no"?>
<!-- Svg Vector Icons : http://www.onlinewebfonts.com/icon -->

<svg
   xmlns:dc="http://purl.org/dc/elements/1.1/"
   xmlns:cc="http://creativecommons.org/ns#"
   xmlns:rdf="http://www.w3.org/1999/02/22-rdf-syntax-ns#"
   xmlns:svg="http://www.w3.org/2000/svg"
   xmlns="http://www.w3.org/2000/svg"
   xmlns:sodipodi="http://sodipodi.sourceforge.net/DTD/sodipodi-0.dtd"
   xmlns:inkscape="http://www.inkscape.org/namespaces/inkscape"
   version="1.1"
   x="0px"
   y="0px"
   viewBox="0 0 1000 1000"
   enable-background="new 0 0 1000 1000"
   xml:space="preserve"
   id="svg3336"
   inkscape:version="0.91 r13725"
   sodipodi:docname="repeat.svg"><defs
   id="defs3346" /><sodipodi:namedview
   pagecolor="#ffffff"
   bordercolor="#666666"
   borderopacity="1"
   objecttolerance="10"
   gridtolerance="10"
   guidetolerance="10"
   inkscape:pageopacity="0"
   inkscape:pageshadow="2"
   inkscape:window-width="1241"
   inkscape:window-height="921"
   id="namedview3344"
   showgrid="false"
   inkscape:zoom="0.73242616"
   inkscape:cx="500"
   inkscape:cy="500"
   inkscape:window-x="525"
   inkscape:window-y="299"
   inkscape:window-maximized="0"
   inkscape:current-layer="g3340" />
<metadata
   id="metadata3338"> Svg Vector Icons : http://www.onlinewebfonts.com/icon <rdf:RDF><cc:Work
     rdf:about=""><dc:format>image/svg+xml</dc:format><dc:type
       rdf:resource="http://purl.org/dc/dcmitype/StillImage" /></cc:Work></rdf:RDF></metadata>
<g
   id="g3340"
   transform="matrix(-0.67260056,0,0,0.66145504,836.98293,160.39787)"><path
     d="m 990,91.5 0,285.9 c 0,11.1 -4,20.6 -12.1,28.7 -8.1,8.1 -17.7,12.1 -28.7,12.1 l -285.9,0 c -17.9,0 -30.4,-8.5 -37.7,-25.5 -7.2,-16.6 -4.3,-31.3 8.9,-44 l 88,-88 c -62.9,-58.3 -137.2,-87.4 -222.7,-87.4 -44.2,0 -86.5,8.6 -126.7,25.8 -40.2,17.2 -75,40.5 -104.3,69.9 -29.3,29.3 -52.6,64.1 -69.9,104.3 -17.2,40.2 -25.8,82.4 -25.8,126.7 0,44.2 8.6,86.5 25.8,126.7 17.2,40.2 40.5,75 69.9,104.3 29.3,29.3 64.1,52.6 104.3,69.9 40.2,17.2 82.4,25.8 126.7,25.8 50.6,0 98.5,-11.1 143.6,-33.2 45.1,-22.1 83.2,-53.4 114.2,-93.8 3,-4.3 7.9,-6.8 14.7,-7.6 6,0 11.3,1.9 16,5.8 l 87.4,88 c 3.8,3.4 5.9,7.8 6,13.1 0.1,5.3 -1.4,10.1 -4.8,14.4 C 830.5,869.6 774.4,913.1 708.4,943.9 642.7,974.5 573.2,990 500,990 433.6,990 370.2,977 309.9,951.1 249.5,925.2 197.4,890.3 153.6,846.5 109.8,802.7 74.9,750.6 49,690.2 23,629.7 10,566.3 10,500 10,433.7 22.9,370.3 48.9,309.9 74.9,249.5 109.7,197.4 153.5,153.6 197.3,109.8 249.4,74.9 309.8,49 370.3,23 433.7,10 500,10 562.5,10 623,21.8 681.5,45.4 740,69 792,102.3 837.5,145.2 L 920.4,62.9 C 932.7,49.7 947.6,46.7 965.1,54 981.7,61.2 990,73.8 990,91.7 l 0,-0.2 z"
     id="path3342"
     inkscape:connector-curvature="0" /><path
     style="fill:#ffffff;stroke:none;stroke-width:1px;stroke-linecap:butt;stroke-linejoin:miter;stroke-opacity:1"
     d="M 461.77089,812.50002 C 401.36933,805.59545 334.13312,776.9971 289.1447,739.07495 c -12.30848,-10.3752 -35.74973,-33.81969 -41.02103,-41.0267 -6.85349,-9.3702 -6.6716,-9.66088 27.62164,-44.14179 17.08364,-17.17711 32.72023,-32.10682 34.748,-33.17713 6.2868,-3.31835 10.49994,-2.44412 15.92967,3.30544 41.11609,43.53796 62.26981,58.16011 105.27849,72.772 22.69037,7.7089 38.66349,10.00047 69.66386,9.99428 24.13147,-0.005 30.0496,-0.44485 42.93854,-3.19262 88.99481,-18.97266 155.6702,-85.47073 173.03781,-172.57764 2.48407,-12.45887 3.05644,-19.93175 3.05644,-39.9054 0,-28.30679 -2.72273,-45.49525 -10.95135,-69.13551 -25.64929,-73.68852 -86.72606,-126.6339 -165.42199,-143.39875 -12.59596,-2.68336 -18.72439,-3.12964 -43.34212,-3.15621 -24.48955,-0.0264 -30.9013,0.42107 -43.95607,3.0678 -35.94363,7.28723 -68.73811,22.81196 -96.99551,45.91714 -4.68328,3.82935 -8.52325,7.65412 -8.53329,8.49949 -0.01,0.84537 13.29274,14.36209 29.56175,30.03716 30.26062,29.15589 37.32094,37.60302 37.32094,44.6516 0,10.54088 -7.39133,22.78949 -15.89661,26.34323 -3.68128,1.53814 -23.21498,1.87837 -107.84286,1.87837 l -103.34729,0 -5.8863,-3.4496 c -3.4508,-2.02231 -7.3136,-5.8851 -9.3359,-9.33591 l -3.4496,-5.8863 0,-102.00591 c 0,-110.9592 -0.38401,-105.35465 7.74808,-113.08121 4.36346,-4.14587 13.76497,-7.90366 19.77393,-7.90366 2.1825,0 6.00668,0.85174 8.49819,1.89276 2.49636,1.04305 18.08713,15.1976 34.72876,31.52956 l 30.19875,29.63681 13.3551,-11.19402 c 39.16317,-32.82589 91.98886,-58.98851 141.78187,-70.21934 44.74309,-10.09182 97.30377,-10.30402 142.53637,-0.57547 35.17114,7.56456 81.23345,27.02903 112.53759,47.55483 64.78874,42.48129 113.67595,109.13449 134.47579,183.34537 8.60603,30.70505 10.32305,44.67707 10.36028,84.3051 0.0298,31.74346 -0.34503,38.27436 -3.05633,53.24769 -9.32427,51.49402 -30.13499,98.93974 -62.28156,141.99384 -13.00926,17.42338 -43.38048,47.76584 -60.48817,60.43088 -49.18273,36.41061 -102.25434,58.15213 -160.63068,65.8046 -17.46968,2.29007 -62.29077,2.61483 -80.089,0.58029 z"
     id="path3348"
     inkscape:connector-curvature="0"
     transform="matrix(-1.4867665,0,0,1.5118186,1244.3982,-242.49248)" /></g>
</svg>