<?xml version="1.0" encoding="UTF-8" standalone="no"?>
<!-- Generator: Adobe Illustrator 16.0.0, SVG Export Plug-In . SVG Version: 6.00 Build 0)  -->

<svg
   xmlns:dc="http://purl.org/dc/elements/1.1/"
   xmlns:cc="http://creativecommons.org/ns#"
   xmlns:rdf="http://www.w3.org/1999/02/22-rdf-syntax-ns#"
   xmlns:svg="http://www.w3.org/2000/svg"
   xmlns="http://www.w3.org/2000/svg"
   xmlns:sodipodi="http://sodipodi.sourceforge.net/DTD/sodipodi-0.dtd"
   xmlns:inkscape="http://www.inkscape.org/namespaces/inkscape"
   version="1.1"
   id="Capa_1"
   x="0px"
   y="0px"
   width="512px"
   height="512px"
   viewBox="0 0 510 510"
   style="enable-background:new 0 0 510 510;"
   xml:space="preserve"
   inkscape:version="0.91 r13725"
   sodipodi:docname="buttons.svg"><metadata
   id="metadata3532"><rdf:RDF><cc:Work
       rdf:about=""><dc:format>image/svg+xml</dc:format><dc:type
         rdf:resource="http://purl.org/dc/dcmitype/StillImage" /></cc:Work></rdf:RDF></metadata><defs
   id="defs3530" /><sodipodi:namedview
   pagecolor="#ffffff"
   bordercolor="#666666"
   borderopacity="1"
   objecttolerance="10"
   gridtolerance="10"
   guidetolerance="10"
   inkscape:pageopacity="0"
   inkscape:pageshadow="2"
   inkscape:window-width="1157"
   inkscape:window-height="745"
   id="namedview3528"
   showgrid="false"
   inkscape:zoom="1.0623169"
   inkscape:cx="256"
   inkscape:cy="257.00768"
   inkscape:window-x="422"
   inkscape:window-y="79"
   inkscape:window-maximized="0"
   inkscape:current-layer="Capa_1" />
<g
   id="g3493"
   transform="matrix(0.71134731,0,0,0.71134731,73.137604,70.324619)">
	<g
   id="sms">
		<path
   d="M 459,0 51,0 C 22.95,0 0,22.95 0,51 l 0,459 102,-102 357,0 c 28.05,0 51,-22.95 51,-51 L 510,51 C 510,22.95 487.05,0 459,0 Z m -280.5,229.5 -51,0 0,-51 51,0 0,51 z m 102,0 -51,0 0,-51 51,0 0,51 z m 102,0 -51,0 0,-51 51,0 0,51 z"
   id="path3496"
   inkscape:connector-curvature="0"
   style="fill:#ffffff" />
	</g>
</g>
<g
   id="g3498">
</g>
<g
   id="g3500">
</g>
<g
   id="g3502">
</g>
<g
   id="g3504">
</g>
<g
   id="g3506">
</g>
<g
   id="g3508">
</g>
<g
   id="g3510">
</g>
<g
   id="g3512">
</g>
<g
   id="g3514">
</g>
<g
   id="g3516">
</g>
<g
   id="g3518">
</g>
<g
   id="g3520">
</g>
<g
   id="g3522">
</g>
<g
   id="g3524">
</g>
<g
   id="g3526">
</g>
</svg>