<?xml version="1.0" encoding="iso-8859-1"?>
<!-- Generator: Adobe Illustrator 16.0.0, SVG Export Plug-In . SVG Version: 6.00 Build 0)  -->
<!DOCTYPE svg PUBLIC "-//W3C//DTD SVG 1.1//EN" "http://www.w3.org/Graphics/SVG/1.1/DTD/svg11.dtd">
<svg xmlns="http://www.w3.org/2000/svg" xmlns:xlink="http://www.w3.org/1999/xlink" version="1.1" id="Capa_1" x="0px" y="0px" width="512px" height="512px" viewBox="0 0 32.006 32.006" style="enable-background:new 0 0 32.006 32.006;" xml:space="preserve">
<g>
	<g>
		<path d="M17.871,20.045H17.2c-0.348,0-0.631-0.282-0.631-0.631c0-0.13,0.052-0.253,0.145-0.343c0.39-0.381,0.72-0.891,0.956-1.442    c0.049,0.036,0.1,0.062,0.159,0.062c0.377,0,0.819-0.834,0.819-1.401c0-0.568-0.051-1.028-0.428-1.028    c-0.046,0-0.093,0.007-0.141,0.021c-0.027-1.539-0.416-3.461-2.767-3.461c-2.453,0-2.739,1.917-2.767,3.455    c-0.034-0.007-0.069-0.014-0.101-0.014c-0.377,0-0.429,0.46-0.429,1.028c0,0.567,0.443,1.401,0.82,1.401    c0.047,0,0.09-0.014,0.13-0.037c0.237,0.541,0.561,1.043,0.946,1.418c0.093,0.09,0.145,0.214,0.145,0.343    c0,0.349-0.282,0.631-0.631,0.631h-0.671c-1.436,0-2.6,1.164-2.6,2.601v0.721c0,0.453,0.368,0.82,0.821,0.82h8.676    c0.453,0,0.82-0.367,0.82-0.82v-0.721C20.471,21.209,19.307,20.045,17.871,20.045z" fill="#FFFFFF"/>
		<path d="M25.654,12.912h-7.275c0.21,0.465,0.36,1.037,0.424,1.744c0.155,0.096,0.271,0.251,0.366,0.437h6.485    c0.337,0,0.609-0.272,0.609-0.608V13.52C26.264,13.184,25.991,12.912,25.654,12.912z" fill="#FFFFFF"/>
		<path d="M25.654,16.888h-6.336c-0.172,0.649-0.596,1.329-1.182,1.512c-0.018,0.031-0.039,0.06-0.056,0.092v0.578h7.573    c0.337,0,0.609-0.272,0.609-0.608v-0.965C26.264,17.16,25.991,16.888,25.654,16.888z" fill="#FFFFFF"/>
		<path d="M25.654,20.862h-4.946c0.326,0.518,0.519,1.128,0.519,1.783v0.399h4.428c0.337,0,0.609-0.272,0.609-0.608v-0.965    C26.264,21.135,25.991,20.862,25.654,20.862z" fill="#FFFFFF"/>
		<path d="M28.27,6.846H8.146c-2.064,0-3.737,1.673-3.737,3.737v14.841c0,2.063,1.673,3.737,3.737,3.737H28.27    c2.063,0,3.736-1.674,3.736-3.737V10.583C32.007,8.519,30.333,6.846,28.27,6.846z M30.242,25.424c0,1.089-0.885,1.974-1.973,1.974    H8.146c-1.088,0-1.973-0.885-1.973-1.974V10.583c0-1.088,0.885-1.973,1.973-1.973H28.27c1.088,0,1.973,0.885,1.973,1.973V25.424z" fill="#FFFFFF"/>
		<path d="M3.737,4.61h13.112h6.374h0.637c0.822,0,1.527,0.506,1.822,1.221h1.84c-0.349-1.704-1.855-2.986-3.662-2.986h-1.493    h-4.987H3.737C1.673,2.845,0,4.518,0,6.582v14.841c0,1.946,1.493,3.527,3.394,3.703V23.36c-0.924-0.163-1.629-0.967-1.629-1.938    V6.582C1.765,5.495,2.65,4.61,3.737,4.61z" fill="#FFFFFF"/>
	</g>
</g>
<g>
</g>
<g>
</g>
<g>
</g>
<g>
</g>
<g>
</g>
<g>
</g>
<g>
</g>
<g>
</g>
<g>
</g>
<g>
</g>
<g>
</g>
<g>
</g>
<g>
</g>
<g>
</g>
<g>
</g>
</svg>
