<?xml version="1.0" encoding="UTF-8" standalone="no"?>
<!-- Generator: Adobe Illustrator 17.1.0, SVG Export Plug-In . SVG Version: 6.00 Build 0)  -->

<svg
   xmlns:dc="http://purl.org/dc/elements/1.1/"
   xmlns:cc="http://creativecommons.org/ns#"
   xmlns:rdf="http://www.w3.org/1999/02/22-rdf-syntax-ns#"
   xmlns:svg="http://www.w3.org/2000/svg"
   xmlns="http://www.w3.org/2000/svg"
   xmlns:sodipodi="http://sodipodi.sourceforge.net/DTD/sodipodi-0.dtd"
   xmlns:inkscape="http://www.inkscape.org/namespaces/inkscape"
   version="1.1"
   id="Capa_1"
   x="0px"
   y="0px"
   viewBox="0 0 414.092 414.092"
   style="enable-background:new 0 0 414.092 414.092;"
   xml:space="preserve"
   width="512px"
   height="512px"
   inkscape:version="0.91 r13725"
   sodipodi:docname="event.svg"><metadata
   id="metadata3379"><rdf:RDF><cc:Work
       rdf:about=""><dc:format>image/svg+xml</dc:format><dc:type
         rdf:resource="http://purl.org/dc/dcmitype/StillImage" /></cc:Work></rdf:RDF></metadata><defs
   id="defs3377" /><sodipodi:namedview
   pagecolor="#ffffff"
   bordercolor="#666666"
   borderopacity="1"
   objecttolerance="10"
   gridtolerance="10"
   guidetolerance="10"
   inkscape:pageopacity="0"
   inkscape:pageshadow="2"
   inkscape:window-width="1352"
   inkscape:window-height="855"
   id="namedview3375"
   showgrid="false"
   inkscape:zoom="1.3037892"
   inkscape:cx="256"
   inkscape:cy="293.24237"
   inkscape:window-x="3073"
   inkscape:window-y="257"
   inkscape:window-maximized="0"
   inkscape:current-layer="Capa_1" />
<g
   id="g3337"
   transform="matrix(0.88311481,0,0,0.88311481,24.263204,5.5908526)">
	<polygon
   points="287.75,169.526 246.395,169.526 246.395,244.565 287.75,244.565 287.75,296.586 414.092,207.046 287.75,117.506 "
   id="polygon3339"
   style="fill:#ffffff" />
	<path
   d="m 116.528,207.046 c 0,-32.127 -26.137,-58.265 -58.264,-58.265 C 26.137,148.781 0,174.919 0,207.046 c 0,32.127 26.137,58.265 58.264,58.265 32.127,0 58.264,-26.138 58.264,-58.265 z"
   id="path3341"
   inkscape:connector-curvature="0"
   style="fill:#ffffff" />
	<path
   d="m 59.862,47.832 -5,0 0,62.726 5,0 c 53.204,0 96.488,43.284 96.488,96.488 0,53.204 -43.285,96.488 -96.488,96.488 l -5,0 0,62.726 5,0 c 87.791,0 159.213,-71.423 159.213,-159.214 0,-87.791 -71.423,-159.214 -159.213,-159.214 z"
   id="path3343"
   inkscape:connector-curvature="0"
   style="fill:#ffffff" />
</g>
<g
   id="g3345">
</g>
<g
   id="g3347">
</g>
<g
   id="g3349">
</g>
<g
   id="g3351">
</g>
<g
   id="g3353">
</g>
<g
   id="g3355">
</g>
<g
   id="g3357">
</g>
<g
   id="g3359">
</g>
<g
   id="g3361">
</g>
<g
   id="g3363">
</g>
<g
   id="g3365">
</g>
<g
   id="g3367">
</g>
<g
   id="g3369">
</g>
<g
   id="g3371">
</g>
<g
   id="g3373">
</g>
</svg>