<?xml version="1.0" encoding="UTF-8" standalone="no"?>
<!-- Generator: Adobe Illustrator 18.0.0, SVG Export Plug-In . SVG Version: 6.00 Build 0)  -->

<svg
   xmlns:dc="http://purl.org/dc/elements/1.1/"
   xmlns:cc="http://creativecommons.org/ns#"
   xmlns:rdf="http://www.w3.org/1999/02/22-rdf-syntax-ns#"
   xmlns:svg="http://www.w3.org/2000/svg"
   xmlns="http://www.w3.org/2000/svg"
   xmlns:sodipodi="http://sodipodi.sourceforge.net/DTD/sodipodi-0.dtd"
   xmlns:inkscape="http://www.inkscape.org/namespaces/inkscape"
   version="1.1"
   id="Capa_1"
   x="0px"
   y="0px"
   viewBox="0 0 315.58 315.58"
   style="enable-background:new 0 0 315.58 315.58;"
   xml:space="preserve"
   width="512px"
   height="512px"
   inkscape:version="0.91 r13725"
   sodipodi:docname="picture.svg"><metadata
   id="metadata3490"><rdf:RDF><cc:Work
       rdf:about=""><dc:format>image/svg+xml</dc:format><dc:type
         rdf:resource="http://purl.org/dc/dcmitype/StillImage" /></cc:Work></rdf:RDF></metadata><defs
   id="defs3488" /><sodipodi:namedview
   pagecolor="#ffffff"
   bordercolor="#666666"
   borderopacity="1"
   objecttolerance="10"
   gridtolerance="10"
   guidetolerance="10"
   inkscape:pageopacity="0"
   inkscape:pageshadow="2"
   inkscape:window-width="1184"
   inkscape:window-height="791"
   id="namedview3486"
   showgrid="false"
   inkscape:zoom="1.1451416"
   inkscape:cx="256"
   inkscape:cy="256"
   inkscape:window-x="0"
   inkscape:window-y="0"
   inkscape:window-maximized="0"
   inkscape:current-layer="Capa_1" />
<g
   id="g3450"
   transform="matrix(0.7612195,0,0,0.7612195,37.13893,32.179835)">
	<path
   d="M 310.58,33.331 5,33.331 c -2.761,0 -5,2.238 -5,5 l 0,238.918 c 0,2.762 2.239,5 5,5 l 305.58,0 c 2.763,0 5,-2.238 5,-5 l 0,-238.918 c 0,-2.762 -2.237,-5 -5,-5 z m -25,209.055 -68.766,-71.214 c -0.76,-0.785 -2.003,-0.836 -2.823,-0.114 l -47.695,41.979 -60.962,-75.061 c -0.396,-0.49 -0.975,-0.77 -1.63,-0.756 -0.631,0.013 -1.22,0.316 -1.597,0.822 L 30,234.797 30,63.331 l 255.58,0 0,179.055 z"
   id="path3452"
   inkscape:connector-curvature="0"
   style="fill:#ffffff" />
	<path
   d="m 210.059,135.555 c 13.538,0 24.529,-10.982 24.529,-24.531 0,-13.545 -10.991,-24.533 -24.529,-24.533 -13.549,0 -24.528,10.988 -24.528,24.533 0,13.548 10.98,24.531 24.528,24.531 z"
   id="path3454"
   inkscape:connector-curvature="0"
   style="fill:#ffffff" />
</g>
<g
   id="g3456">
</g>
<g
   id="g3458">
</g>
<g
   id="g3460">
</g>
<g
   id="g3462">
</g>
<g
   id="g3464">
</g>
<g
   id="g3466">
</g>
<g
   id="g3468">
</g>
<g
   id="g3470">
</g>
<g
   id="g3472">
</g>
<g
   id="g3474">
</g>
<g
   id="g3476">
</g>
<g
   id="g3478">
</g>
<g
   id="g3480">
</g>
<g
   id="g3482">
</g>
<g
   id="g3484">
</g>
</svg>