<?xml version="1.0" encoding="UTF-8" standalone="no"?>
<svg
   xmlns:dc="http://purl.org/dc/elements/1.1/"
   xmlns:cc="http://creativecommons.org/ns#"
   xmlns:rdf="http://www.w3.org/1999/02/22-rdf-syntax-ns#"
   xmlns:svg="http://www.w3.org/2000/svg"
   xmlns="http://www.w3.org/2000/svg"
   xmlns:sodipodi="http://sodipodi.sourceforge.net/DTD/sodipodi-0.dtd"
   xmlns:inkscape="http://www.inkscape.org/namespaces/inkscape"
   version="1.1"
   viewBox="0 0 511.992 511.992"
   enable-background="new 0 0 511.992 511.992"
   width="512px"
   height="512px"
   id="svg3350"
   inkscape:version="0.91 r13725"
   sodipodi:docname="tech.svg">
  <metadata
     id="metadata3362">
    <rdf:RDF>
      <cc:Work
         rdf:about="">
        <dc:format>image/svg+xml</dc:format>
        <dc:type
           rdf:resource="http://purl.org/dc/dcmitype/StillImage" />
      </cc:Work>
    </rdf:RDF>
  </metadata>
  <defs
     id="defs3360" />
  <sodipodi:namedview
     pagecolor="#ffffff"
     bordercolor="#666666"
     borderopacity="1"
     objecttolerance="10"
     gridtolerance="10"
     guidetolerance="10"
     inkscape:pageopacity="0"
     inkscape:pageshadow="2"
     inkscape:window-width="974"
     inkscape:window-height="811"
     id="namedview3358"
     showgrid="false"
     inkscape:zoom="1.1811523"
     inkscape:cx="256"
     inkscape:cy="256"
     inkscape:window-x="324"
     inkscape:window-y="69"
     inkscape:window-maximized="0"
     inkscape:current-layer="svg3350" />
  <g
     id="g3352"
     transform="matrix(0.7420423,0,0,0.70824616,66.036303,74.687758)">
    <path
       d="m 287.998,97.851 0,-62.672 c 0,-16.354 -18.555,-25.786 -31.784,-16.171 -35.293,25.651 -59.654,64.675 -64.213,110.839 l 64,0 c 17.671,0 31.997,-14.325 31.997,-31.996 z"
       id="path3354"
       inkscape:connector-curvature="0"
       style="fill:#ffffff" />
    <path
       d="M 511.791,136.617 C 509.3,87.737 484.636,46.083 447.74,19.089 434.56,9.446 415.999,18.956 415.999,35.287 l 0,77.561 c 0,26.95 -22.05,49 -49,49 l -78.997,0 -64,0 -32.003,0 0,49.75 L 9.375,394.222 c -12.5,12.492 -12.499,32.758 10e-4,45.25 l 48,48 c 6.242,6.25 14.438,9.375 22.625,9.375 8.187,0 16.383,-2.625 22.625,-8.875 l 182.625,-182.125 66.747,0 c 5,0.002 9.233,-0.082 13.917,-0.478 84.584,-7.158 150.197,-83.975 145.876,-168.752 z m -415.79,296.23 c -17.673,0 -32,-14.328 -32,-32 0,-17.674 14.327,-32 32,-32 17.674,0 32,14.326 32,32 0,17.672 -14.326,32 -32,32 z m 176,-191 -32,0 16,-32 32,0 -16,32 z m 64,0 -32,0 16,-32 32,0 -16,32 z m 64,0 -32,0 16,-32 32,0 -16,32 z"
       id="path3356"
       inkscape:connector-curvature="0"
       style="fill:#ffffff" />
  </g>
</svg>
