<?xml version="1.0" encoding="UTF-8" standalone="no"?>
<!-- Generator: Adobe Illustrator 19.0.0, SVG Export Plug-In . SVG Version: 6.00 Build 0)  -->

<svg
   xmlns:dc="http://purl.org/dc/elements/1.1/"
   xmlns:cc="http://creativecommons.org/ns#"
   xmlns:rdf="http://www.w3.org/1999/02/22-rdf-syntax-ns#"
   xmlns:svg="http://www.w3.org/2000/svg"
   xmlns="http://www.w3.org/2000/svg"
   xmlns:sodipodi="http://sodipodi.sourceforge.net/DTD/sodipodi-0.dtd"
   xmlns:inkscape="http://www.inkscape.org/namespaces/inkscape"
   version="1.1"
   id="Layer_1"
   x="0px"
   y="0px"
   viewBox="0 0 512.002 512.002"
   style="enable-background:new 0 0 512.002 512.002;"
   xml:space="preserve"
   width="512px"
   height="512px"
   inkscape:version="0.91 r13725"
   sodipodi:docname="wrapper.svg"><metadata
   id="metadata3381"><rdf:RDF><cc:Work
       rdf:about=""><dc:format>image/svg+xml</dc:format><dc:type
         rdf:resource="http://purl.org/dc/dcmitype/StillImage" /></cc:Work></rdf:RDF></metadata><defs
   id="defs3379" /><sodipodi:namedview
   pagecolor="#ffffff"
   bordercolor="#666666"
   borderopacity="1"
   objecttolerance="10"
   gridtolerance="10"
   guidetolerance="10"
   inkscape:pageopacity="0"
   inkscape:pageshadow="2"
   inkscape:window-width="1160"
   inkscape:window-height="916"
   id="namedview3377"
   showgrid="false"
   inkscape:zoom="1.420919"
   inkscape:cx="256"
   inkscape:cy="256"
   inkscape:window-x="3146"
   inkscape:window-y="179"
   inkscape:window-maximized="0"
   inkscape:current-layer="Layer_1" />
<g
   id="g3337"
   transform="matrix(0.74983157,0,0,0.74983157,80.230081,59.879185)">
	<g
   id="g3339">
		<g
   id="g3341">
			<path
   d="m 192,170.668 c -42.469,0 -64,7.177 -64,21.333 0,14.156 21.531,21.333 64,21.333 42.469,0 64,-7.177 64,-21.333 0,-14.156 -21.531,-21.333 -64,-21.333 z"
   id="path3343"
   inkscape:connector-curvature="0"
   style="fill:#ffffff" />
			<path
   d="m 492.823,213.376 17.385,-26.052 c 2.385,-3.573 2.385,-8.24 0,-11.823 l -17.396,-26.146 17.396,-26.104 c 2.188,-3.271 2.385,-7.479 0.531,-10.948 -1.854,-3.469 -5.469,-5.635 -9.406,-5.635 l -309.333,0 c -109.458,0 -192,36.687 -192,85.333 l 0,128 c 0,48.646 82.542,85.333 192,85.333 109.458,0 192,-36.688 192,-85.333 l 0,-64 117.333,0 c 3.938,0 7.552,-2.167 9.406,-5.635 1.854,-3.469 1.646,-7.677 -0.531,-10.958 L 492.823,213.376 Z M 192,234.668 c -96.063,0 -149.219,-32.042 -149.333,-42.667 0.115,-10.625 53.271,-42.667 149.333,-42.667 96.062,0 149.219,32.042 149.333,42.667 -0.114,10.625 -53.271,42.667 -149.333,42.667 z"
   id="path3345"
   inkscape:connector-curvature="0"
   style="fill:#ffffff" />
		</g>
	</g>
</g>
<g
   id="g3347">
</g>
<g
   id="g3349">
</g>
<g
   id="g3351">
</g>
<g
   id="g3353">
</g>
<g
   id="g3355">
</g>
<g
   id="g3357">
</g>
<g
   id="g3359">
</g>
<g
   id="g3361">
</g>
<g
   id="g3363">
</g>
<g
   id="g3365">
</g>
<g
   id="g3367">
</g>
<g
   id="g3369">
</g>
<g
   id="g3371">
</g>
<g
   id="g3373">
</g>
<g
   id="g3375">
</g>
</svg>