<?xml version="1.0" encoding="UTF-8" standalone="no"?>
<!-- Generator: Adobe Illustrator 19.0.0, SVG Export Plug-In . SVG Version: 6.00 Build 0)  -->

<svg
   xmlns:dc="http://purl.org/dc/elements/1.1/"
   xmlns:cc="http://creativecommons.org/ns#"
   xmlns:rdf="http://www.w3.org/1999/02/22-rdf-syntax-ns#"
   xmlns:svg="http://www.w3.org/2000/svg"
   xmlns="http://www.w3.org/2000/svg"
   xmlns:sodipodi="http://sodipodi.sourceforge.net/DTD/sodipodi-0.dtd"
   xmlns:inkscape="http://www.inkscape.org/namespaces/inkscape"
   version="1.1"
   id="Layer_1"
   x="0px"
   y="0px"
   viewBox="0 0 512 512"
   style="enable-background:new 0 0 512 512;"
   xml:space="preserve"
   width="512px"
   height="512px"
   inkscape:version="0.91 r13725"
   sodipodi:docname="cells (1).svg"><metadata
   id="metadata3434"><rdf:RDF><cc:Work
       rdf:about=""><dc:format>image/svg+xml</dc:format><dc:type
         rdf:resource="http://purl.org/dc/dcmitype/StillImage" /></cc:Work></rdf:RDF></metadata><defs
   id="defs3432" /><sodipodi:namedview
   pagecolor="#ffffff"
   bordercolor="#666666"
   borderopacity="1"
   objecttolerance="10"
   gridtolerance="10"
   guidetolerance="10"
   inkscape:pageopacity="0"
   inkscape:pageshadow="2"
   inkscape:window-width="1446"
   inkscape:window-height="1061"
   id="namedview3430"
   showgrid="false"
   inkscape:zoom="1.5934753"
   inkscape:cx="256"
   inkscape:cy="256"
   inkscape:window-x="3011"
   inkscape:window-y="170"
   inkscape:window-maximized="0"
   inkscape:current-layer="Layer_1" />
<g
   id="g3388"
   transform="matrix(0.71318593,0,0,0.71318593,72.169228,70.521268)">
	<g
   id="g3390">
		<g
   id="g3392">
			<path
   d="M 510.792,151.326 424.012,4.27 C 422.45,1.631 419.612,0 416.54,0 L 251.659,0 c -3.072,0 -5.91,1.631 -7.472,4.27 l -86.78,147.057 c -1.649,2.786 -1.605,6.248 0.104,8.999 l 2.846,4.556 26.433,0 c 9.068,0 17.33,4.591 22.111,12.288 l 64.85,104.118 c 4.261,6.821 4.877,15.039 2.23,22.441 l 140.559,0 c 2.994,0 5.78,-1.545 7.368,-4.096 l 86.78,-139.307 c 1.709,-2.751 1.753,-6.214 0.104,-9 z m -120.285,-99.258 -107.963,0 -66.881,108.683 c -1.64,2.664 -4.487,4.131 -7.402,4.131 -1.553,0 -3.124,-0.417 -4.539,-1.284 -4.087,-2.508 -5.354,-7.862 -2.846,-11.941 L 270.3,38.843 c 1.588,-2.569 4.382,-4.131 7.394,-4.131 l 112.814,0 c 4.79,0 8.678,3.879 8.678,8.678 0,4.799 -3.889,8.678 -8.679,8.678 z"
   id="path3394"
   inkscape:connector-curvature="0"
   style="fill:#ffffff" />
			<path
   d="m 198.411,403.56 60.746,-104.136 c 1.623,-2.777 1.571,-6.231 -0.13,-8.956 L 194.159,186.332 c -1.588,-2.551 -4.365,-4.096 -7.368,-4.096 l -117.369,0 c -3.081,0 -5.944,1.631 -7.498,4.304 L 1.178,290.677 c -1.571,2.708 -1.571,6.04 0,8.747 L 61.924,403.56 c 1.553,2.673 4.417,4.304 7.498,4.304 l 121.492,0 c 3.08,0 5.944,-1.631 7.497,-4.304 z m -33.532,-169.255 -64.616,0 -40.839,65.362 c -1.649,2.629 -4.469,4.079 -7.368,4.079 -1.571,0 -3.159,-0.425 -4.591,-1.319 -4.061,-2.534 -5.302,-7.897 -2.76,-11.958 l 43.39,-69.441 c 1.579,-2.534 4.365,-4.079 7.359,-4.079 l 69.424,0 c 4.79,0 8.678,3.879 8.678,8.678 10e-4,4.799 -3.886,8.678 -8.677,8.678 z"
   id="path3396"
   inkscape:connector-curvature="0"
   style="fill:#ffffff" />
			<path
   d="m 400.006,321.085 -133.389,0 -53.213,91.223 c -3.827,6.561 -10.388,10.891 -17.72,12.279 l 48.484,83.109 c 1.553,2.673 4.408,4.304 7.489,4.304 l 121.491,0 c 3.194,0 6.127,-1.753 7.645,-4.565 l 60.746,-112.814 c 1.493,-2.768 1.362,-6.118 -0.321,-8.773 l -41.212,-64.763 z"
   id="path3398"
   inkscape:connector-curvature="0"
   style="fill:#ffffff" />
		</g>
	</g>
</g>
<g
   id="g3400">
</g>
<g
   id="g3402">
</g>
<g
   id="g3404">
</g>
<g
   id="g3406">
</g>
<g
   id="g3408">
</g>
<g
   id="g3410">
</g>
<g
   id="g3412">
</g>
<g
   id="g3414">
</g>
<g
   id="g3416">
</g>
<g
   id="g3418">
</g>
<g
   id="g3420">
</g>
<g
   id="g3422">
</g>
<g
   id="g3424">
</g>
<g
   id="g3426">
</g>
<g
   id="g3428">
</g>
</svg>